{
  "source": "C:\\Users\\Peter\\Desktop\\stuff\\MIUN\\quantitative_research\\video_compression\\videos\\UVG\\Bosphorus_1920x1080_120fps_420_8bit_YUV.y4m",
  "output": "C:\\Users\\Peter\\Desktop\\stuff\\MIUN\\quantitative_research\\video_compression\\compressed_videos\\UVG\\av1\\2\\Bosphorus_1920x1080_120fps_420_8bit_YUV_av1.mkv",
  "codec": "av1",
  "ok": "[yuv4mpegpipe @ 00000204bdf25380] Stream #0: not enough frames to estimate rate; consider increasing probesize\nInput #0, yuv4mpegpipe, from 'C:\\Users\\Peter\\Desktop\\stuff\\MIUN\\quantitative_research\\video_compression\\videos\\UVG\\Bosphorus_1920x1080_120fps_420_8bit_YUV.y4m':\n  Duration: 00:00:05.00, start: 0.000000, bitrate: 2985989 kb/s\n  Stream #0:0: Video: rawvideo (I420 / 0x30323449), yuv420p(progressive), 1920x1080, 120 fps, 120 tbr, 120 tbn\n[out#0/matroska @ 00000204bdf290c0] Codec AVOption b:a (set bitrate (in bits/s)) has not been used for any stream. The most likely reason is either wrong type (e.g. a video option with no video streams) or that it is a private option of some decoder which was not actually used for any stream.\nStream mapping:\n  Stream #0:0 -> #0:0 (rawvideo (native) -> av1 (libsvtav1))\nPress [q] to stop, [?] for help\nSvt[info]: -------------------------------------------\nSvt[info]: SVT [version]:\tSVT-AV1 Encoder Lib v3.1.0-19-g6ecfe8ec\nSvt[info]: SVT [build]  :\tGCC 15.2.0\t 64 bit\nSvt[info]: LIB Build date: Aug 17 2025 11:37:13\nSvt[info]: -------------------------------------------\n[libsvtav1 @ 00000204bdf2c1c0] Specified chroma sample location center is unsupported on the AV1 bit stream level. Usage of a container that allows passing this information - such as Matroska - is recommended.\nSvt[info]: Level of Parallelism: 5\nSvt[info]: Number of PPCS 93\nSvt[info]: [asm level on system : up to avx2]\nSvt[info]: [asm level selected : up to avx2]\nSvt[info]: -------------------------------------------\nSvt[info]: SVT [config]: main profile\ttier (auto)\tlevel (auto)\nSvt[info]: SVT [config]: width / height / fps numerator / fps denominator \t\t: 1920 / 1080 / 120 / 1\nSvt[info]: SVT [config]: bit-depth / color format \t\t\t\t\t: 8 / YUV420\nSvt[info]: SVT [config]: preset / tune / pred struct \t\t\t\t\t: 4 / PSNR / random access\nSvt[info]: SVT [config]: gop size / mini-gop size / key-frame type \t\t\t: 641 / 16 / key frame\nSvt[info]: SVT [config]: BRC mode / target bitrate (kbps)\t\t\t\t: VBR / 2000 \nSvt[info]: SVT [config]: AQ mode / Variance Boost \t\t\t\t\t: 2 / 0\nSvt[info]: SVT [config]: sharpness / luminance-based QP bias \t\t\t\t: 0 / 0\nSvt[info]: SVT [config]: QP scale compress strength \t\t\t\t\t: 0\nSvt[info]: -------------------------------------------\nOutput #0, matroska, to 'C:\\Users\\Peter\\Desktop\\stuff\\MIUN\\quantitative_research\\video_compression\\compressed_videos\\UVG\\av1\\2\\Bosphorus_1920x1080_120fps_420_8bit_YUV_av1.mkv':\n  Metadata:\n    encoder         : Lavf62.3.100\n  Stream #0:0: Video: av1 (AV01 / 0x31305641), yuv420p(tv, progressive), 1920x1080, q=2-31, 2000 kb/s, 120 fps, 1k tbn\n    Metadata:\n      encoder         : Lavc62.11.100 libsvtav1\n    Side data:\n      cpb: bitrate max/min/avg: 0/0/2000000 buffer size: 2000000 vbv_delay: N/A\nframe=    0 fps=0.0 q=0.0 size=       0KiB time=N/A bitrate=N/A speed=N/A elapsed=0:00:05.05    \nframe=    0 fps=0.0 q=0.0 size=       0KiB time=N/A bitrate=N/A speed=N/A elapsed=0:00:05.59    \nframe=    0 fps=0.0 q=0.0 size=       0KiB time=N/A bitrate=N/A speed=N/A elapsed=0:00:06.16    \nframe=    0 fps=0.0 q=0.0 size=       0KiB time=N/A bitrate=N/A speed=N/A elapsed=0:00:06.73    \nframe=    0 fps=0.0 q=0.0 size=       0KiB time=N/A bitrate=N/A speed=N/A elapsed=0:00:07.28    \nframe=    0 fps=0.0 q=0.0 size=       0KiB time=N/A bitrate=N/A speed=N/A elapsed=0:00:07.83    \nframe=    0 fps=0.0 q=0.0 size=       0KiB time=N/A bitrate=N/A speed=N/A elapsed=0:00:08.34    \nframe=    0 fps=0.0 q=0.0 size=       0KiB time=N/A bitrate=N/A speed=N/A elapsed=0:00:08.87    \nframe=    0 fps=0.0 q=0.0 size=       0KiB time=N/A bitrate=N/A speed=N/A elapsed=0:00:09.39    \nframe=    0 fps=0.0 q=0.0 size=       0KiB time=N/A bitrate=N/A speed=N/A elapsed=0:00:09.93    \nframe=    0 fps=0.0 q=0.0 size=       0KiB time=N/A bitrate=N/A speed=N/A elapsed=0:00:10.48    \nframe=    0 fps=0.0 q=0.0 size=       0KiB time=N/A bitrate=N/A speed=N/A elapsed=0:00:11.00    \nframe=    0 fps=0.0 q=0.0 size=       0KiB time=N/A bitrate=N/A speed=N/A elapsed=0:00:11.53    \nframe=    0 fps=0.0 q=0.0 size=       0KiB time=N/A bitrate=N/A speed=N/A elapsed=0:00:12.04    \nframe=    0 fps=0.0 q=0.0 size=       0KiB time=N/A bitrate=N/A speed=N/A elapsed=0:00:12.59    \nframe=    0 fps=0.0 q=0.0 size=       0KiB time=N/A bitrate=N/A speed=N/A elapsed=0:00:13.14    \nframe=    0 fps=0.0 q=0.0 size=       0KiB time=N/A bitrate=N/A speed=N/A elapsed=0:00:13.70    \nframe=    0 fps=0.0 q=0.0 size=       0KiB time=N/A bitrate=N/A speed=N/A elapsed=0:00:14.24    \nframe=    0 fps=0.0 q=0.0 size=       0KiB time=N/A bitrate=N/A speed=N/A elapsed=0:00:14.76    \nframe=    0 fps=0.0 q=0.0 size=       0KiB time=N/A bitrate=N/A speed=N/A elapsed=0:00:15.29    \nframe=    0 fps=0.0 q=0.0 size=       0KiB time=N/A bitrate=N/A speed=N/A elapsed=0:00:15.81    \nframe=    1 fps=0.1 q=23.0 size=       1KiB time=00:00:00.00 bitrate=N/A speed=   0x elapsed=0:00:16.47    \nframe=    1 fps=0.1 q=23.0 size=       1KiB time=00:00:00.00 bitrate=N/A speed=   0x elapsed=0:00:16.99    \nframe=    1 fps=0.1 q=23.0 size=       1KiB time=00:00:00.00 bitrate=N/A speed=   0x elapsed=0:00:17.51    \nframe=    1 fps=0.1 q=23.0 size=       1KiB time=00:00:00.00 bitrate=N/A speed=   0x elapsed=0:00:18.03    \nframe=    1 fps=0.1 q=23.0 size=       1KiB time=00:00:00.00 bitrate=N/A speed=   0x elapsed=0:00:18.55    \nframe=    1 fps=0.1 q=23.0 size=       1KiB time=00:00:00.00 bitrate=N/A speed=   0x elapsed=0:00:19.06    \nframe=    1 fps=0.1 q=23.0 size=       1KiB time=00:00:00.00 bitrate=N/A speed=   0x elapsed=0:00:19.62    \nframe=    4 fps=0.2 q=53.0 size=       1KiB time=00:00:00.02 bitrate= 179.2kbits/s speed=0.00124x elapsed=0:00:20.18    \nframe=    6 fps=0.3 q=49.0 size=       1KiB time=00:00:00.04 bitrate= 107.5kbits/s speed=0.00201x elapsed=0:00:20.71    \nframe=    9 fps=0.4 q=45.0 size=       1KiB time=00:00:00.06 bitrate=  67.2kbits/s speed=0.00313x elapsed=0:00:21.29    \nframe=   11 fps=0.5 q=48.0 size=       1KiB time=00:00:00.08 bitrate=  53.8kbits/s speed=0.00382x elapsed=0:00:21.81    \nframe=   13 fps=0.6 q=48.0 size=       1KiB time=00:00:00.10 bitrate=  44.8kbits/s speed=0.00448x elapsed=0:00:22.33    \nframe=   15 fps=0.7 q=45.0 size=       1KiB time=00:00:00.11 bitrate=  38.4kbits/s speed=0.00511x elapsed=0:00:22.84    \nframe=   17 fps=0.7 q=36.0 size=       1KiB time=00:00:00.12 bitrate=  35.8kbits/s speed=0.00533x elapsed=0:00:23.45    \nframe=   18 fps=0.7 q=45.0 size=       1KiB time=00:00:00.14 bitrate=  31.6kbits/s speed=0.00588x elapsed=0:00:24.11    \nframe=   19 fps=0.8 q=46.0 size=       1KiB time=00:00:00.15 bitrate=  29.9kbits/s speed=0.00606x elapsed=0:00:24.73    \nframe=   21 fps=0.8 q=48.0 size=       1KiB time=00:00:00.16 bitrate=  26.9kbits/s speed=0.00659x elapsed=0:00:25.30    \nframe=   23 fps=0.9 q=45.0 size=       1KiB time=00:00:00.18 bitrate=  24.4kbits/s speed=0.00709x elapsed=0:00:25.84    \nframe=   24 fps=0.9 q=43.0 size=       1KiB time=00:00:00.19 bitrate=  23.4kbits/s speed=0.00727x elapsed=0:00:26.38    \nframe=   27 fps=1.0 q=42.0 size=       1KiB time=00:00:00.21 bitrate=  20.7kbits/s speed=0.00805x elapsed=0:00:26.90    \nframe=   28 fps=1.0 q=41.0 size=       1KiB time=00:00:00.22 bitrate=  19.9kbits/s speed=0.00821x elapsed=0:00:27.42    \nframe=   30 fps=1.1 q=40.0 size=       1KiB time=00:00:00.24 bitrate=  18.5kbits/s speed=0.00865x elapsed=0:00:27.94    \nframe=   31 fps=1.1 q=41.0 size=       1KiB time=00:00:00.25 bitrate=  17.9kbits/s speed=0.00879x elapsed=0:00:28.45    \nframe=   32 fps=1.1 q=41.0 size=       1KiB time=00:00:00.25 bitrate=  17.3kbits/s speed=0.00892x elapsed=0:00:28.97    \nframe=   33 fps=1.1 q=32.0 size=       1KiB time=00:00:00.26 bitrate=  16.8kbits/s speed=0.00904x elapsed=0:00:29.50    \nframe=   35 fps=1.2 q=39.0 size=       1KiB time=00:00:00.28 bitrate=  15.8kbits/s speed=0.00944x elapsed=0:00:30.01    \nframe=   36 fps=1.2 q=37.0 size=       1KiB time=00:00:00.29 bitrate=  15.4kbits/s speed=0.00954x elapsed=0:00:30.57    \nframe=   36 fps=1.2 q=37.0 size=       1KiB time=00:00:00.29 bitrate=  15.4kbits/s speed=0.00937x elapsed=0:00:31.11    \nframe=   37 fps=1.2 q=43.0 size=       1KiB time=00:00:00.30 bitrate=  14.9kbits/s speed=0.00948x elapsed=0:00:31.62    \nframe=   38 fps=1.2 q=36.0 size=       1KiB time=00:00:00.30 bitrate=  14.5kbits/s speed=0.00959x elapsed=0:00:32.14    \nframe=   39 fps=1.2 q=39.0 size=       1KiB time=00:00:00.31 bitrate=  14.1kbits/s speed=0.0097x elapsed=0:00:32.66    \nframe=   39 fps=1.2 q=39.0 size=       1KiB time=00:00:00.31 bitrate=  14.1kbits/s speed=0.00955x elapsed=0:00:33.17    \nframe=   40 fps=1.2 q=36.0 size=       1KiB time=00:00:00.32 bitrate=  13.8kbits/s speed=0.00964x elapsed=0:00:33.70    \nframe=   40 fps=1.2 q=36.0 size=       1KiB time=00:00:00.32 bitrate=  13.8kbits/s speed=0.0095x elapsed=0:00:34.21    \nframe=   42 fps=1.2 q=39.0 size=       1KiB time=00:00:00.34 bitrate=  13.1kbits/s speed=0.00983x elapsed=0:00:34.74    \nframe=   42 fps=1.2 q=39.0 size=       1KiB time=00:00:00.34 bitrate=  13.1kbits/s speed=0.00969x elapsed=0:00:35.25    \nframe=   43 fps=1.2 q=40.0 size=       1KiB time=00:00:00.35 bitrate=  12.8kbits/s speed=0.00978x elapsed=0:00:35.77    \nframe=   43 fps=1.2 q=40.0 size=       1KiB time=00:00:00.35 bitrate=  12.8kbits/s speed=0.00964x elapsed=0:00:36.30    \nframe=   44 fps=1.2 q=36.0 size=       1KiB time=00:00:00.35 bitrate=  12.5kbits/s speed=0.00973x elapsed=0:00:36.82    \nframe=   45 fps=1.2 q=43.0 size=       1KiB time=00:00:00.36 bitrate=  12.2kbits/s speed=0.00982x elapsed=0:00:37.35    \nframe=   46 fps=1.2 q=39.0 size=       1KiB time=00:00:00.37 bitrate=  11.9kbits/s speed=0.0099x elapsed=0:00:37.88    \nframe=   47 fps=1.2 q=42.0 size=       1KiB time=00:00:00.38 bitrate=  11.7kbits/s speed=0.00998x elapsed=0:00:38.39    \nframe=   47 fps=1.2 q=42.0 size=       1KiB time=00:00:00.38 bitrate=  11.7kbits/s speed=0.00985x elapsed=0:00:38.90    \nframe=   48 fps=1.2 q=42.0 size=       1KiB time=00:00:00.39 bitrate=  11.4kbits/s speed=0.00993x elapsed=0:00:39.42    \nframe=   49 fps=1.2 q=30.0 size=       1KiB time=00:00:00.40 bitrate=  11.2kbits/s speed=0.01x elapsed=0:00:39.94    \nframe=   51 fps=1.3 q=38.0 size=       1KiB time=00:00:00.40 bitrate=  11.0kbits/s speed=0.0101x elapsed=0:00:40.45    \nframe=   51 fps=1.2 q=38.0 size=       1KiB time=00:00:00.41 bitrate=  10.8kbits/s speed=0.0102x elapsed=0:00:40.98    \nframe=   52 fps=1.3 q=34.0 size=       1KiB time=00:00:00.42 bitrate=  10.5kbits/s speed=0.0102x elapsed=0:00:41.49    \nframe=   52 fps=1.2 q=34.0 size=       1KiB time=00:00:00.42 bitrate=  10.5kbits/s speed=0.0101x elapsed=0:00:42.01    \nframe=   53 fps=1.2 q=43.0 size=       1KiB time=00:00:00.43 bitrate=  10.3kbits/s speed=0.0102x elapsed=0:00:42.53    \nframe=   53 fps=1.2 q=43.0 size=       1KiB time=00:00:00.43 bitrate=  10.3kbits/s speed=0.0101x elapsed=0:00:43.05    \nframe=   54 fps=1.2 q=38.0 size=       1KiB time=00:00:00.44 bitrate=  10.1kbits/s speed=0.0101x elapsed=0:00:43.57    \nframe=   54 fps=1.2 q=38.0 size=       1KiB time=00:00:00.44 bitrate=  10.1kbits/s speed=0.01x elapsed=0:00:44.08    \nframe=   55 fps=1.2 q=39.0 size=       1KiB time=00:00:00.45 bitrate=  10.0kbits/s speed=0.0101x elapsed=0:00:44.60    \nframe=   55 fps=1.2 q=39.0 size=       1KiB time=00:00:00.45 bitrate=  10.0kbits/s speed=0.00997x elapsed=0:00:45.13    \nframe=   55 fps=1.2 q=39.0 size=       1KiB time=00:00:00.45 bitrate=  10.0kbits/s speed=0.00986x elapsed=0:00:45.64    \nframe=   56 fps=1.2 q=35.0 size=       1KiB time=00:00:00.45 bitrate=   9.8kbits/s speed=0.00993x elapsed=0:00:46.16    \nframe=   58 fps=1.2 q=40.0 size=       1KiB time=00:00:00.47 bitrate=   9.4kbits/s speed=0.0102x elapsed=0:00:46.67    \nframe=   58 fps=1.2 q=40.0 size=       1KiB time=00:00:00.47 bitrate=   9.4kbits/s speed=0.0101x elapsed=0:00:47.18    \nframe=   59 fps=1.2 q=41.0 size=       1KiB time=00:00:00.48 bitrate=   9.3kbits/s speed=0.0101x elapsed=0:00:47.70    \nframe=   60 fps=1.2 q=35.0 size=       1KiB time=00:00:00.49 bitrate=   9.1kbits/s speed=0.0102x elapsed=0:00:48.22    \nframe=   62 fps=1.3 q=42.0 size=       1KiB time=00:00:00.50 bitrate=   8.8kbits/s speed=0.0104x elapsed=0:00:48.73    \nframe=   63 fps=1.3 q=40.0 size=       1KiB time=00:00:00.51 bitrate=   8.7kbits/s speed=0.0105x elapsed=0:00:49.25    \nframe=   64 fps=1.3 q=40.0 size=       1KiB time=00:00:00.52 bitrate=   8.5kbits/s speed=0.0105x elapsed=0:00:49.78    \nframe=   65 fps=1.3 q=29.0 size=       1KiB time=00:00:00.53 bitrate=   8.4kbits/s speed=0.0106x elapsed=0:00:50.30    \nframe=   65 fps=1.3 q=29.0 size=       1KiB time=00:00:00.53 bitrate=   8.4kbits/s speed=0.0105x elapsed=0:00:50.83    \nframe=   66 fps=1.3 q=36.0 size=       1KiB time=00:00:00.54 bitrate=   8.3kbits/s speed=0.0105x elapsed=0:00:51.35    \nframe=   66 fps=1.3 q=36.0 size=       1KiB time=00:00:00.54 bitrate=   8.3kbits/s speed=0.0104x elapsed=0:00:51.86    \nframe=   68 fps=1.3 q=33.0 size=       1KiB time=00:00:00.55 bitrate=   8.0kbits/s speed=0.0107x elapsed=0:00:52.38    \nframe=   69 fps=1.3 q=42.0 size=       1KiB time=00:00:00.56 bitrate=   7.9kbits/s speed=0.0107x elapsed=0:00:52.89    \nframe=   69 fps=1.3 q=42.0 size=       1KiB time=00:00:00.56 bitrate=   7.9kbits/s speed=0.0106x elapsed=0:00:53.40    \nframe=   70 fps=1.3 q=37.0 size=       1KiB time=00:00:00.57 bitrate=   7.8kbits/s speed=0.0107x elapsed=0:00:53.92    \nframe=   71 fps=1.3 q=39.0 size=       1KiB time=00:00:00.58 bitrate=   7.7kbits/s speed=0.0107x elapsed=0:00:54.43    \nframe=   71 fps=1.3 q=39.0 size=       1KiB time=00:00:00.58 bitrate=   7.7kbits/s speed=0.0106x elapsed=0:00:54.95    \nframe=   72 fps=1.3 q=36.0 size=       1KiB time=00:00:00.59 bitrate=   7.6kbits/s speed=0.0107x elapsed=0:00:55.47    \nframe=   73 fps=1.3 q=40.0 size=       1KiB time=00:00:00.60 bitrate=   7.5kbits/s speed=0.0107x elapsed=0:00:55.98    \nframe=   74 fps=1.3 q=36.0 size=       1KiB time=00:00:00.60 bitrate=   7.4kbits/s speed=0.0108x elapsed=0:00:56.50    \nframe=   75 fps=1.3 q=39.0 size=       1KiB time=00:00:00.61 bitrate=   7.3kbits/s speed=0.0108x elapsed=0:00:57.01    \nframe=   75 fps=1.3 q=39.0 size=       1KiB time=00:00:00.61 bitrate=   7.3kbits/s speed=0.0107x elapsed=0:00:57.53    \nframe=   76 fps=1.3 q=36.0 size=       1KiB time=00:00:00.62 bitrate=   7.2kbits/s speed=0.0108x elapsed=0:00:58.06    \nframe=   79 fps=1.3 q=39.0 size=       1KiB time=00:00:00.65 bitrate=   6.9kbits/s speed=0.0111x elapsed=0:00:58.59    \nframe=   79 fps=1.3 q=39.0 size=       1KiB time=00:00:00.65 bitrate=   6.9kbits/s speed=0.011x elapsed=0:00:59.11    \nframe=   82 fps=1.4 q=38.0 size=       1KiB time=00:00:00.67 bitrate=   6.6kbits/s speed=0.0113x elapsed=0:00:59.62    \nframe=   82 fps=1.4 q=38.0 size=       1KiB time=00:00:00.67 bitrate=   6.6kbits/s speed=0.0112x elapsed=0:01:00.14    \nframe=   82 fps=1.4 q=38.0 size=       1KiB time=00:00:00.67 bitrate=   6.6kbits/s speed=0.0111x elapsed=0:01:00.65    \nframe=   83 fps=1.4 q=38.0 size=       1KiB time=00:00:00.68 bitrate=   6.6kbits/s speed=0.0112x elapsed=0:01:01.18    \nframe=   83 fps=1.3 q=38.0 size=       1KiB time=00:00:00.68 bitrate=   6.6kbits/s speed=0.0111x elapsed=0:01:01.69    \nframe=   84 fps=1.4 q=30.0 size=       1KiB time=00:00:00.69 bitrate=   6.5kbits/s speed=0.0111x elapsed=0:01:02.20    \nframe=   85 fps=1.4 q=42.0 size=       1KiB time=00:00:00.70 bitrate=   6.4kbits/s speed=0.0112x elapsed=0:01:02.72    \nframe=   86 fps=1.4 q=49.0 size=       1KiB time=00:00:00.70 bitrate=   6.3kbits/s speed=0.0112x elapsed=0:01:03.24    \nframe=   86 fps=1.3 q=49.0 size=       1KiB time=00:00:00.70 bitrate=   6.3kbits/s speed=0.0111x elapsed=0:01:03.77    \nframe=   86 fps=1.3 q=49.0 size=       1KiB time=00:00:00.70 bitrate=   6.3kbits/s speed=0.011x elapsed=0:01:04.28    \nframe=   87 fps=1.3 q=37.0 size=       1KiB time=00:00:00.71 bitrate=   6.3kbits/s speed=0.0111x elapsed=0:01:04.81    \nframe=   87 fps=1.3 q=37.0 size=       1KiB time=00:00:00.71 bitrate=   6.3kbits/s speed=0.011x elapsed=0:01:05.33    \nframe=   88 fps=1.3 q=34.0 size=       1KiB time=00:00:00.72 bitrate=   6.2kbits/s speed=0.011x elapsed=0:01:05.84    \nframe=   89 fps=1.3 q=39.0 size=       1KiB time=00:00:00.73 bitrate=   6.1kbits/s speed=0.011x elapsed=0:01:06.37    \nframe=   90 fps=1.3 q=37.0 size=       1KiB time=00:00:00.74 bitrate=   6.0kbits/s speed=0.0111x elapsed=0:01:06.90    \nframe=   91 fps=1.3 q=41.0 size=       1KiB time=00:00:00.75 bitrate=   6.0kbits/s speed=0.0111x elapsed=0:01:07.42    \nframe=   92 fps=1.4 q=37.0 size=       1KiB time=00:00:00.75 bitrate=   5.9kbits/s speed=0.0112x elapsed=0:01:07.93    \nframe=   94 fps=1.4 q=36.0 size=       1KiB time=00:00:00.77 bitrate=   5.8kbits/s speed=0.0113x elapsed=0:01:08.45    \nframe=   96 fps=1.4 q=39.0 size=       1KiB time=00:00:00.79 bitrate=   5.7kbits/s speed=0.0115x elapsed=0:01:08.97    \nframe=   97 fps=1.4 q=28.0 size=       1KiB time=00:00:00.80 bitrate=   5.6kbits/s speed=0.0115x elapsed=0:01:09.48    \nframe=   98 fps=1.4 q=39.0 size=       1KiB time=00:00:00.80 bitrate=   5.5kbits/s speed=0.0115x elapsed=0:01:10.00    \nframe=   99 fps=1.4 q=39.0 size=       1KiB time=00:00:00.81 bitrate=   5.5kbits/s speed=0.0116x elapsed=0:01:10.52    \nframe=  101 fps=1.4 q=43.0 size=       1KiB time=00:00:00.83 bitrate=   5.4kbits/s speed=0.0117x elapsed=0:01:11.04    \nframe=  102 fps=1.4 q=36.0 size=       1KiB time=00:00:00.84 bitrate=   5.3kbits/s speed=0.0118x elapsed=0:01:11.55    \nframe=  102 fps=1.4 q=36.0 size=       1KiB time=00:00:00.84 bitrate=   5.3kbits/s speed=0.0117x elapsed=0:01:12.06    \nframe=  103 fps=1.4 q=39.0 size=       1KiB time=00:00:00.85 bitrate=   5.3kbits/s speed=0.0117x elapsed=0:01:12.57    \nframe=  103 fps=1.4 q=39.0 size=       1KiB time=00:00:00.85 bitrate=   5.3kbits/s speed=0.0116x elapsed=0:01:13.10    \nframe=  104 fps=1.4 q=36.0 size=       1KiB time=00:00:00.85 bitrate=   5.2kbits/s speed=0.0117x elapsed=0:01:13.62    \nframe=  105 fps=1.4 q=39.0 size=       1KiB time=00:00:00.86 bitrate=   5.2kbits/s speed=0.0117x elapsed=0:01:14.14    \nframe=  105 fps=1.4 q=39.0 size=       1KiB time=00:00:00.86 bitrate=   5.2kbits/s speed=0.0116x elapsed=0:01:14.66    \nframe=  107 fps=1.4 q=40.0 size=       1KiB time=00:00:00.88 bitrate=   5.1kbits/s speed=0.0118x elapsed=0:01:15.17    \nframe=  107 fps=1.4 q=40.0 size=       1KiB time=00:00:00.88 bitrate=   5.1kbits/s speed=0.0117x elapsed=0:01:15.69    \nframe=  108 fps=1.4 q=36.0 size=       1KiB time=00:00:00.89 bitrate=   5.0kbits/s speed=0.0117x elapsed=0:01:16.20    \nframe=  111 fps=1.4 q=39.0 size=       1KiB time=00:00:00.91 bitrate=   4.9kbits/s speed=0.0119x elapsed=0:01:16.72    \nframe=  113 fps=1.5 q=29.0 size=       1KiB time=00:00:00.93 bitrate=   4.8kbits/s speed=0.0121x elapsed=0:01:17.24    \nframe=  113 fps=1.5 q=29.0 size=       1KiB time=00:00:00.93 bitrate=   4.8kbits/s speed=0.012x elapsed=0:01:17.75    \nframe=  114 fps=1.5 q=39.0 size=       1KiB time=00:00:00.94 bitrate=   4.8kbits/s speed=0.012x elapsed=0:01:18.27    \nframe=  115 fps=1.5 q=39.0 size=       1KiB time=00:00:00.95 bitrate=   4.7kbits/s speed=0.0121x elapsed=0:01:18.78    \nframe=  117 fps=1.5 q=43.0 size=       1KiB time=00:00:00.96 bitrate=   4.6kbits/s speed=0.0122x elapsed=0:01:19.31    \nframe=  117 fps=1.5 q=43.0 size=       1KiB time=00:00:00.96 bitrate=   4.6kbits/s speed=0.0121x elapsed=0:01:19.83    \nframe=  119 fps=1.5 q=39.0 size=       1KiB time=00:00:00.98 bitrate=   4.6kbits/s speed=0.0122x elapsed=0:01:20.37    \nframe=  119 fps=1.5 q=39.0 size=       1KiB time=00:00:00.98 bitrate=   4.6kbits/s speed=0.0122x elapsed=0:01:20.87    \nframe=  120 fps=1.5 q=37.0 size=       1KiB time=00:00:00.99 bitrate=   4.5kbits/s speed=0.0122x elapsed=0:01:21.40    \nframe=  120 fps=1.5 q=37.0 size=       1KiB time=00:00:00.99 bitrate=   4.5kbits/s speed=0.0121x elapsed=0:01:21.91    \nframe=  122 fps=1.5 q=37.0 size=       1KiB time=00:00:01.00 bitrate=   4.4kbits/s speed=0.0122x elapsed=0:01:22.42    \nframe=  123 fps=1.5 q=39.0 size=       1KiB time=00:00:01.01 bitrate=   4.4kbits/s speed=0.0123x elapsed=0:01:22.93    \nframe=  123 fps=1.5 q=39.0 size=       1KiB time=00:00:01.01 bitrate=   4.4kbits/s speed=0.0122x elapsed=0:01:23.46    \nframe=  124 fps=1.5 q=37.0 size=       1KiB time=00:00:01.02 bitrate=   4.4kbits/s speed=0.0122x elapsed=0:01:23.97    \nframe=  125 fps=1.5 q=43.0 size=       1KiB time=00:00:01.03 bitrate=   4.3kbits/s speed=0.0122x elapsed=0:01:24.49    \nframe=  127 fps=1.5 q=39.0 size=       1KiB time=00:00:01.05 bitrate=   4.3kbits/s speed=0.0124x elapsed=0:01:25.00    \nframe=  127 fps=1.5 q=39.0 size=       1KiB time=00:00:01.05 bitrate=   4.3kbits/s speed=0.0123x elapsed=0:01:25.52    \nframe=  128 fps=1.5 q=39.0 size=       1KiB time=00:00:01.05 bitrate=   4.2kbits/s speed=0.0123x elapsed=0:01:26.03    \nframe=  129 fps=1.5 q=29.0 size=       1KiB time=00:00:01.06 bitrate=   4.2kbits/s speed=0.0123x elapsed=0:01:26.54    \nframe=  130 fps=1.5 q=38.0 size=       1KiB time=00:00:01.07 bitrate=   4.2kbits/s speed=0.0123x elapsed=0:01:27.07    \nframe=  131 fps=1.5 q=38.0 size=       1KiB time=00:00:01.08 bitrate=   4.1kbits/s speed=0.0124x elapsed=0:01:27.60    \nframe=  132 fps=1.5 q=36.0 size=       1KiB time=00:00:01.09 bitrate=   4.1kbits/s speed=0.0124x elapsed=0:01:28.11    \nframe=  133 fps=1.5 q=42.0 size=       1KiB time=00:00:01.10 bitrate=   4.1kbits/s speed=0.0124x elapsed=0:01:28.63    \nframe=  133 fps=1.5 q=42.0 size=       1KiB time=00:00:01.10 bitrate=   4.1kbits/s speed=0.0123x elapsed=0:01:29.15    \nframe=  134 fps=1.5 q=36.0 size=       1KiB time=00:00:01.10 bitrate=   4.0kbits/s speed=0.0124x elapsed=0:01:29.68    \nframe=  134 fps=1.5 q=36.0 size=       1KiB time=00:00:01.10 bitrate=   4.0kbits/s speed=0.0123x elapsed=0:01:30.19    \nframe=  134 fps=1.5 q=36.0 size=       1KiB time=00:00:01.10 bitrate=   4.0kbits/s speed=0.0122x elapsed=0:01:30.70    \nframe=  134 fps=1.5 q=36.0 size=       1KiB time=00:00:01.10 bitrate=   4.0kbits/s speed=0.0121x elapsed=0:01:31.23    \nframe=  135 fps=1.5 q=38.0 size=       1KiB time=00:00:01.11 bitrate=   4.0kbits/s speed=0.0122x elapsed=0:01:31.74    \nframe=  135 fps=1.5 q=38.0 size=       1KiB time=00:00:01.11 bitrate=   4.0kbits/s speed=0.0121x elapsed=0:01:32.26    \nframe=  136 fps=1.5 q=36.0 size=       1KiB time=00:00:01.12 bitrate=   4.0kbits/s speed=0.0121x elapsed=0:01:32.79    \nframe=  136 fps=1.5 q=36.0 size=       1KiB time=00:00:01.12 bitrate=   4.0kbits/s speed=0.0121x elapsed=0:01:33.30    \nframe=  138 fps=1.5 q=37.0 size=       1KiB time=00:00:01.14 bitrate=   3.9kbits/s speed=0.0122x elapsed=0:01:33.81    \nframe=  139 fps=1.5 q=40.0 size=       1KiB time=00:00:01.15 bitrate=   3.9kbits/s speed=0.0122x elapsed=0:01:34.34    \nframe=  140 fps=1.5 q=37.0 size=       1KiB time=00:00:01.15 bitrate=   3.9kbits/s speed=0.0122x elapsed=0:01:34.87    \nframe=  142 fps=1.5 q=37.0 size=       1KiB time=00:00:01.17 bitrate=   3.8kbits/s speed=0.0123x elapsed=0:01:35.38    \nframe=  143 fps=1.5 q=39.0 size=       1KiB time=00:00:01.18 bitrate=   3.8kbits/s speed=0.0123x elapsed=0:01:35.89    \nframe=  144 fps=1.5 q=39.0 size=       1KiB time=00:00:01.19 bitrate=   3.8kbits/s speed=0.0124x elapsed=0:01:36.40    \nframe=  145 fps=1.5 q=30.0 size=       1KiB time=00:00:01.20 bitrate=   3.7kbits/s speed=0.0124x elapsed=0:01:36.92    \nframe=  146 fps=1.5 q=39.0 size=       1KiB time=00:00:01.20 bitrate=   3.7kbits/s speed=0.0124x elapsed=0:01:37.45    \nframe=  148 fps=1.5 q=37.0 size=       1KiB time=00:00:01.22 bitrate=   3.7kbits/s speed=0.0125x elapsed=0:01:37.95    \nframe=  149 fps=1.5 q=43.0 size=       1KiB time=00:00:01.22 bitrate=   3.7kbits/s speed=0.0124x elapsed=0:01:38.47    \nframe=  149 fps=1.5 q=43.0 size=       1KiB time=00:00:01.23 bitrate=   3.6kbits/s speed=0.0125x elapsed=0:01:39.01    \nframe=  149 fps=1.5 q=43.0 size=       1KiB time=00:00:01.23 bitrate=   3.6kbits/s speed=0.0124x elapsed=0:01:39.53    \nframe=  150 fps=1.5 q=37.0 size=       1KiB time=00:00:01.24 bitrate=   3.6kbits/s speed=0.0124x elapsed=0:01:40.05    \nframe=  150 fps=1.5 q=37.0 size=       1KiB time=00:00:01.24 bitrate=   3.6kbits/s speed=0.0123x elapsed=0:01:40.57    \nframe=  150 fps=1.5 q=37.0 size=       1KiB time=00:00:01.24 bitrate=   3.6kbits/s speed=0.0123x elapsed=0:01:41.09    \nframe=  151 fps=1.5 q=39.0 size=       1KiB time=00:00:01.25 bitrate=   3.6kbits/s speed=0.0123x elapsed=0:01:41.62    \nframe=  151 fps=1.5 q=39.0 size=       1KiB time=00:00:01.25 bitrate=   3.6kbits/s speed=0.0122x elapsed=0:01:42.13    \nframe=  152 fps=1.5 q=33.0 size=       1KiB time=00:00:01.25 bitrate=   3.6kbits/s speed=0.0123x elapsed=0:01:42.64    \nframe=  153 fps=1.5 q=39.0 size=       1KiB time=00:00:01.26 bitrate=   3.5kbits/s speed=0.0123x elapsed=0:01:43.17    \nframe=  155 fps=1.5 q=40.0 size=       1KiB time=00:00:01.28 bitrate=   3.5kbits/s speed=0.0124x elapsed=0:01:43.68    \nframe=  155 fps=1.5 q=40.0 size=       1KiB time=00:00:01.28 bitrate=   3.5kbits/s speed=0.0123x elapsed=0:01:44.21    \nframe=  155 fps=1.5 q=40.0 size=       1KiB time=00:00:01.28 bitrate=   3.5kbits/s speed=0.0123x elapsed=0:01:44.72    \nframe=  156 fps=1.5 q=38.0 size=       1KiB time=00:00:01.29 bitrate=   3.5kbits/s speed=0.0123x elapsed=0:01:45.23    \nframe=  157 fps=1.5 q=43.0 size=       1KiB time=00:00:01.30 bitrate=   3.4kbits/s speed=0.0123x elapsed=0:01:45.75    \nframe=  158 fps=1.5 q=38.0 size=       1KiB time=00:00:01.30 bitrate=   3.4kbits/s speed=0.0123x elapsed=0:01:46.27    \nframe=  159 fps=1.5 q=39.0 size=       1KiB time=00:00:01.31 bitrate=   3.4kbits/s speed=0.0123x elapsed=0:01:46.80    \nframe=  160 fps=1.5 q=39.0 size=       1KiB time=00:00:01.32 bitrate=   3.4kbits/s speed=0.0123x elapsed=0:01:47.32    \nframe=  162 fps=1.5 q=39.0 size=       1KiB time=00:00:01.34 bitrate=   3.3kbits/s speed=0.0124x elapsed=0:01:47.82    \nframe=  162 fps=1.5 q=39.0 size=       1KiB time=00:00:01.34 bitrate=   3.3kbits/s speed=0.0124x elapsed=0:01:48.35    \nframe=  163 fps=1.5 q=40.0 size=       1KiB time=00:00:01.35 bitrate=   3.3kbits/s speed=0.0124x elapsed=0:01:48.85    \nframe=  165 fps=1.5 q=43.0 size=       1KiB time=00:00:01.36 bitrate=   3.3kbits/s speed=0.0125x elapsed=0:01:49.38    \nframe=  165 fps=1.5 q=43.0 size=       1KiB time=00:00:01.36 bitrate=   3.3kbits/s speed=0.0124x elapsed=0:01:49.90    \nframe=  166 fps=1.5 q=38.0 size=       1KiB time=00:00:01.37 bitrate=   3.3kbits/s speed=0.0125x elapsed=0:01:50.43    \nframe=  166 fps=1.5 q=38.0 size=       1KiB time=00:00:01.37 bitrate=   3.3kbits/s speed=0.0124x elapsed=0:01:50.94    \nframe=  167 fps=1.5 q=40.0 size=       1KiB time=00:00:01.38 bitrate=   3.2kbits/s speed=0.0124x elapsed=0:01:51.45    \nframe=  167 fps=1.5 q=40.0 size=       1KiB time=00:00:01.38 bitrate=   3.2kbits/s speed=0.0124x elapsed=0:01:51.96    \nframe=  168 fps=1.5 q=34.0 size=       1KiB time=00:00:01.39 bitrate=   3.2kbits/s speed=0.0124x elapsed=0:01:52.48    \nframe=  169 fps=1.5 q=39.0 size=       1KiB time=00:00:01.40 bitrate=   3.2kbits/s speed=0.0124x elapsed=0:01:53.01    \nframe=  171 fps=1.5 q=40.0 size=       1KiB time=00:00:01.41 bitrate=   3.2kbits/s speed=0.0125x elapsed=0:01:53.54    \nframe=  171 fps=1.5 q=40.0 size=       1KiB time=00:00:01.41 bitrate=   3.2kbits/s speed=0.0124x elapsed=0:01:54.06    \nframe=  171 fps=1.5 q=40.0 size=       1KiB time=00:00:01.41 bitrate=   3.2kbits/s speed=0.0124x elapsed=0:01:54.58    \nframe=  173 fps=1.5 q=43.0 size=       1KiB time=00:00:01.43 bitrate=   3.1kbits/s speed=0.0125x elapsed=0:01:55.09    \nframe=  174 fps=1.5 q=38.0 size=       1KiB time=00:00:01.44 bitrate=   3.1kbits/s speed=0.0125x elapsed=0:01:55.62    \nframe=  175 fps=1.5 q=38.0 size=       1KiB time=00:00:01.45 bitrate=   3.1kbits/s speed=0.0125x elapsed=0:01:56.15    \nframe=  176 fps=1.5 q=38.0 size=       1KiB time=00:00:01.45 bitrate=   3.1kbits/s speed=0.0125x elapsed=0:01:56.66    \nframe=  177 fps=1.5 q=31.0 size=       1KiB time=00:00:01.46 bitrate=   3.1kbits/s speed=0.0125x elapsed=0:01:57.19    \nframe=  178 fps=1.5 q=39.0 size=       1KiB time=00:00:01.47 bitrate=   3.0kbits/s speed=0.0125x elapsed=0:01:57.72    \nframe=  178 fps=1.5 q=39.0 size=       1KiB time=00:00:01.47 bitrate=   3.0kbits/s speed=0.0125x elapsed=0:01:58.25    \nframe=  180 fps=1.5 q=39.0 size=       1KiB time=00:00:01.49 bitrate=   3.0kbits/s speed=0.0126x elapsed=0:01:58.76    \nframe=  181 fps=1.5 q=42.0 size=       1KiB time=00:00:01.50 bitrate=   3.0kbits/s speed=0.0126x elapsed=0:01:59.28    \nframe=  182 fps=1.5 q=39.0 size=       1KiB time=00:00:01.50 bitrate=   3.0kbits/s speed=0.0126x elapsed=0:01:59.80    \nframe=  182 fps=1.5 q=39.0 size=       1KiB time=00:00:01.50 bitrate=   3.0kbits/s speed=0.0125x elapsed=0:02:00.32    \nframe=  182 fps=1.5 q=39.0 size=       1KiB time=00:00:01.50 bitrate=   3.0kbits/s speed=0.0125x elapsed=0:02:00.84    \nframe=  183 fps=1.5 q=40.0 size=       1KiB time=00:00:01.51 bitrate=   3.0kbits/s speed=0.0125x elapsed=0:02:01.36    \nframe=  184 fps=1.5 q=39.0 size=       1KiB time=00:00:01.52 bitrate=   2.9kbits/s speed=0.0125x elapsed=0:02:01.88    \nframe=  186 fps=1.5 q=39.0 size=       1KiB time=00:00:01.53 bitrate=   2.9kbits/s speed=0.0125x elapsed=0:02:02.39    \nframe=  187 fps=1.5 q=40.0 size=       1KiB time=00:00:01.55 bitrate=   2.9kbits/s speed=0.0126x elapsed=0:02:02.91    \nframe=  187 fps=1.5 q=40.0 size=       1KiB time=00:00:01.55 bitrate=   2.9kbits/s speed=0.0126x elapsed=0:02:03.42    \nframe=  189 fps=1.5 q=42.0 size=       1KiB time=00:00:01.56 bitrate=   2.9kbits/s speed=0.0126x elapsed=0:02:03.95    \nframe=  190 fps=1.5 q=38.0 size=       1KiB time=00:00:01.57 bitrate=   2.8kbits/s speed=0.0127x elapsed=0:02:04.48    \nframe=  191 fps=1.5 q=38.0 size=       1KiB time=00:00:01.58 bitrate=   2.8kbits/s speed=0.0127x elapsed=0:02:04.99    \nframe=  192 fps=1.5 q=38.0 size=       1KiB time=00:00:01.59 bitrate=   2.8kbits/s speed=0.0127x elapsed=0:02:05.50    \nframe=  193 fps=1.5 q=31.0 size=       1KiB time=00:00:01.60 bitrate=   2.8kbits/s speed=0.0127x elapsed=0:02:06.01    \nframe=  194 fps=1.5 q=39.0 size=       1KiB time=00:00:01.60 bitrate=   2.8kbits/s speed=0.0127x elapsed=0:02:06.54    \nframe=  194 fps=1.5 q=39.0 size=       1KiB time=00:00:01.60 bitrate=   2.8kbits/s speed=0.0127x elapsed=0:02:07.05    \nframe=  195 fps=1.5 q=40.0 size=       1KiB time=00:00:01.61 bitrate=   2.8kbits/s speed=0.0127x elapsed=0:02:07.57    \nframe=  196 fps=1.5 q=39.0 size=       1KiB time=00:00:01.62 bitrate=   2.8kbits/s speed=0.0127x elapsed=0:02:08.09    \nframe=  197 fps=1.5 q=42.0 size=       1KiB time=00:00:01.63 bitrate=   2.7kbits/s speed=0.0127x elapsed=0:02:08.62    \nframe=  198 fps=1.5 q=39.0 size=       1KiB time=00:00:01.64 bitrate=   2.7kbits/s speed=0.0127x elapsed=0:02:09.12    \nframe=  198 fps=1.5 q=39.0 size=       1KiB time=00:00:01.64 bitrate=   2.7kbits/s speed=0.0127x elapsed=0:02:09.64    \nframe=  198 fps=1.5 q=39.0 size=       1KiB time=00:00:01.64 bitrate=   2.7kbits/s speed=0.0126x elapsed=0:02:10.17    \nframe=  199 fps=1.5 q=40.0 size=       1KiB time=00:00:01.65 bitrate=   2.7kbits/s speed=0.0126x elapsed=0:02:10.68    \nframe=  199 fps=1.5 q=40.0 size=       1KiB time=00:00:01.65 bitrate=   2.7kbits/s speed=0.0126x elapsed=0:02:11.21    \nframe=  199 fps=1.5 q=40.0 size=       1KiB time=00:00:01.65 bitrate=   2.7kbits/s speed=0.0125x elapsed=0:02:11.74    \nframe=  200 fps=1.5 q=34.0 size=       1KiB time=00:00:01.65 bitrate=   2.7kbits/s speed=0.0125x elapsed=0:02:12.26    \nframe=  202 fps=1.5 q=40.0 size=       1KiB time=00:00:01.67 bitrate=   2.7kbits/s speed=0.0126x elapsed=0:02:12.78    \nframe=  203 fps=1.5 q=40.0 size=       1KiB time=00:00:01.68 bitrate=   2.7kbits/s speed=0.0126x elapsed=0:02:13.29    \nframe=  203 fps=1.5 q=40.0 size=       1KiB time=00:00:01.68 bitrate=   2.7kbits/s speed=0.0126x elapsed=0:02:13.82    \nframe=  203 fps=1.5 q=40.0 size=       1KiB time=00:00:01.68 bitrate=   2.7kbits/s speed=0.0125x elapsed=0:02:14.35    \nframe=  204 fps=1.5 q=39.0 size=       1KiB time=00:00:01.69 bitrate=   2.6kbits/s speed=0.0125x elapsed=0:02:14.88    \nframe=  205 fps=1.5 q=43.0 size=       1KiB time=00:00:01.70 bitrate=   2.6kbits/s speed=0.0126x elapsed=0:02:15.43    \nframe=  207 fps=1.5 q=38.0 size=       1KiB time=00:00:01.71 bitrate=   2.6kbits/s speed=0.0126x elapsed=0:02:15.97    \nframe=  208 fps=1.5 q=38.0 size=       1KiB time=00:00:01.72 bitrate=   2.6kbits/s speed=0.0126x elapsed=0:02:16.50    \nframe=  209 fps=1.5 q=31.0 size=       1KiB time=00:00:01.73 bitrate=   2.6kbits/s speed=0.0126x elapsed=0:02:17.03    \nframe=  210 fps=1.5 q=39.0 size=       1KiB time=00:00:01.74 bitrate=   2.6kbits/s speed=0.0127x elapsed=0:02:17.55    \nframe=  211 fps=1.5 q=40.0 size=       1KiB time=00:00:01.75 bitrate=   2.6kbits/s speed=0.0127x elapsed=0:02:18.06    \nframe=  213 fps=1.5 q=43.0 size=       1KiB time=00:00:01.76 bitrate=   2.5kbits/s speed=0.0127x elapsed=0:02:18.58    \nframe=  214 fps=1.5 q=39.0 size=       1KiB time=00:00:01.77 bitrate=   2.5kbits/s speed=0.0128x elapsed=0:02:19.10    \nframe=  215 fps=1.5 q=40.0 size=       1KiB time=00:00:01.78 bitrate=   2.5kbits/s speed=0.0128x elapsed=0:02:19.62    \nframe=  215 fps=1.5 q=40.0 size=       1KiB time=00:00:01.78 bitrate=   2.5kbits/s speed=0.0127x elapsed=0:02:20.14    \nframe=  216 fps=1.5 q=39.0 size=       1KiB time=00:00:01.79 bitrate=   2.5kbits/s speed=0.0127x elapsed=0:02:20.66    \nframe=  217 fps=1.5 q=39.0 size=       1KiB time=00:00:01.80 bitrate=   2.5kbits/s speed=0.0127x elapsed=0:02:21.20    \nframe=  219 fps=1.5 q=40.0 size=       1KiB time=00:00:01.81 bitrate=   2.5kbits/s speed=0.0128x elapsed=0:02:21.72    \nframe=  219 fps=1.5 q=40.0 size=       1KiB time=00:00:01.81 bitrate=   2.5kbits/s speed=0.0128x elapsed=0:02:22.26    \nframe=  220 fps=1.5 q=39.0 size=       1KiB time=00:00:01.82 bitrate=   2.5kbits/s speed=0.0128x elapsed=0:02:22.76    \nframe=  221 fps=1.5 q=43.0 size=       1KiB time=00:00:01.83 bitrate=   2.4kbits/s speed=0.0128x elapsed=0:02:23.30    \nframe=  222 fps=1.5 q=38.0 size=       1KiB time=00:00:01.84 bitrate=   2.4kbits/s speed=0.0128x elapsed=0:02:23.83    \nframe=  223 fps=1.5 q=38.0 size=       1KiB time=00:00:01.85 bitrate=   2.4kbits/s speed=0.0128x elapsed=0:02:24.35    \nframe=  224 fps=1.5 q=38.0 size=       1KiB time=00:00:01.85 bitrate=   2.4kbits/s speed=0.0128x elapsed=0:02:24.87    \nframe=  226 fps=1.6 q=39.0 size=       1KiB time=00:00:01.87 bitrate=   2.4kbits/s speed=0.0129x elapsed=0:02:25.39    \nframe=  226 fps=1.5 q=39.0 size=       1KiB time=00:00:01.87 bitrate=   2.4kbits/s speed=0.0128x elapsed=0:02:25.91    \nframe=  227 fps=1.6 q=40.0 size=       1KiB time=00:00:01.88 bitrate=   2.4kbits/s speed=0.0129x elapsed=0:02:26.43    \nframe=  228 fps=1.6 q=39.0 size=       1KiB time=00:00:01.89 bitrate=   2.4kbits/s speed=0.0129x elapsed=0:02:26.94    \nframe=  230 fps=1.6 q=39.0 size=       1KiB time=00:00:01.90 bitrate=   2.3kbits/s speed=0.0129x elapsed=0:02:27.45    \nframe=  231 fps=1.6 q=40.0 size=       1KiB time=00:00:01.91 bitrate=   2.3kbits/s speed=0.013x elapsed=0:02:27.99    \nframe=  231 fps=1.6 q=40.0 size=       1KiB time=00:00:01.91 bitrate=   2.3kbits/s speed=0.0129x elapsed=0:02:28.51    \nframe=  232 fps=1.6 q=39.0 size=       1KiB time=00:00:01.92 bitrate=   2.3kbits/s speed=0.0129x elapsed=0:02:29.04    \nframe=  234 fps=1.6 q=39.0 size=       1KiB time=00:00:01.94 bitrate=   2.3kbits/s speed=0.013x elapsed=0:02:29.57    \nframe=  235 fps=1.6 q=40.0 size=       1KiB time=00:00:01.95 bitrate=   2.3kbits/s speed=0.013x elapsed=0:02:30.12    \nframe=  236 fps=1.6 q=39.0 size=       1KiB time=00:00:01.95 bitrate=   2.3kbits/s speed=0.0129x elapsed=0:02:30.70    \nframe=  236 fps=1.6 q=39.0 size=       1KiB time=00:00:01.95 bitrate=   2.3kbits/s speed=0.0129x elapsed=0:02:31.26    \nframe=  239 fps=1.6 q=39.0 size=       1KiB time=00:00:01.97 bitrate=   2.3kbits/s speed=0.013x elapsed=0:02:31.82    \nframe=  241 fps=1.6 q=31.0 size=       1KiB time=00:00:01.99 bitrate=   2.2kbits/s speed=0.0131x elapsed=0:02:32.40    \nframe=  242 fps=1.6 q=40.0 size=       1KiB time=00:00:02.00 bitrate=   2.2kbits/s speed=0.0131x elapsed=0:02:32.96    \nframe=  243 fps=1.6 q=40.0 size=       1KiB time=00:00:02.01 bitrate=   2.2kbits/s speed=0.0131x elapsed=0:02:33.54    \nframe=  244 fps=1.6 q=39.0 size=       1KiB time=00:00:02.02 bitrate=   2.2kbits/s speed=0.0131x elapsed=0:02:34.12    \nframe=  245 fps=1.6 q=43.0 size=       1KiB time=00:00:02.03 bitrate=   2.2kbits/s speed=0.0131x elapsed=0:02:34.69    \nframe=  246 fps=1.6 q=39.0 size=       1KiB time=00:00:02.04 bitrate=   2.2kbits/s speed=0.0131x elapsed=0:02:35.27    \nframe=  246 fps=1.6 q=39.0 size=       1KiB time=00:00:02.04 bitrate=   2.2kbits/s speed=0.0131x elapsed=0:02:35.84    \nframe=  247 fps=1.6 q=40.0 size=       1KiB time=00:00:02.05 bitrate=   2.2kbits/s speed=0.0131x elapsed=0:02:36.40    \nframe=  247 fps=1.6 q=40.0 size=       1KiB time=00:00:02.05 bitrate=   2.2kbits/s speed=0.0131x elapsed=0:02:36.98    \nframe=  248 fps=1.6 q=39.0 size=       1KiB time=00:00:02.05 bitrate=   2.2kbits/s speed=0.0131x elapsed=0:02:37.57    \nframe=  250 fps=1.6 q=39.0 size=       1KiB time=00:00:02.07 bitrate=   2.2kbits/s speed=0.0131x elapsed=0:02:38.14    \nframe=  251 fps=1.6 q=40.0 size=       1KiB time=00:00:02.08 bitrate=   2.2kbits/s speed=0.0131x elapsed=0:02:38.70    \nframe=  251 fps=1.6 q=40.0 size=       1KiB time=00:00:02.08 bitrate=   2.2kbits/s speed=0.0131x elapsed=0:02:39.26    \nframe=  252 fps=1.6 q=39.0 size=       1KiB time=00:00:02.09 bitrate=   2.1kbits/s speed=0.0131x elapsed=0:02:39.84    \nframe=  253 fps=1.6 q=43.0 size=       1KiB time=00:00:02.10 bitrate=   2.1kbits/s speed=0.0131x elapsed=0:02:40.42    \nframe=  255 fps=1.6 q=39.0 size=       1KiB time=00:00:02.11 bitrate=   2.1kbits/s speed=0.0131x elapsed=0:02:40.99    \nframe=  257 fps=1.6 q=32.0 size=       1KiB time=00:00:02.13 bitrate=   2.1kbits/s speed=0.0132x elapsed=0:02:41.56    \nframe=  258 fps=1.6 q=40.0 size=       1KiB time=00:00:02.14 bitrate=   2.1kbits/s speed=0.0132x elapsed=0:02:42.10    \nframe=  258 fps=1.6 q=40.0 size=       1KiB time=00:00:02.14 bitrate=   2.1kbits/s speed=0.0132x elapsed=0:02:42.66    \nframe=  260 fps=1.6 q=39.0 size=       1KiB time=00:00:02.15 bitrate=   2.1kbits/s speed=0.0132x elapsed=0:02:43.21    \nframe=  262 fps=1.6 q=39.0 size=       1KiB time=00:00:02.17 bitrate=   2.1kbits/s speed=0.0133x elapsed=0:02:43.77    \nframe=  262 fps=1.6 q=39.0 size=       1KiB time=00:00:02.17 bitrate=   2.1kbits/s speed=0.0132x elapsed=0:02:44.33    \nframe=  263 fps=1.6 q=40.0 size=       1KiB time=00:00:02.18 bitrate=   2.1kbits/s speed=0.0132x elapsed=0:02:44.89    \nframe=  264 fps=1.6 q=39.0 size=       1KiB time=00:00:02.19 bitrate=   2.0kbits/s speed=0.0132x elapsed=0:02:45.45    \nframe=  266 fps=1.6 q=39.0 size=       1KiB time=00:00:02.20 bitrate=   2.0kbits/s speed=0.0133x elapsed=0:02:46.01    \nframe=  267 fps=1.6 q=41.0 size=       1KiB time=00:00:02.21 bitrate=   2.0kbits/s speed=0.0133x elapsed=0:02:46.57    \nframe=  267 fps=1.6 q=41.0 size=       1KiB time=00:00:02.21 bitrate=   2.0kbits/s speed=0.0133x elapsed=0:02:47.12    \nframe=  269 fps=1.6 q=44.0 size=       1KiB time=00:00:02.23 bitrate=   2.0kbits/s speed=0.0133x elapsed=0:02:47.68    \nframe=  271 fps=1.6 q=39.0 size=       1KiB time=00:00:02.25 bitrate=   2.0kbits/s speed=0.0134x elapsed=0:02:48.24    \nframe=  272 fps=1.6 q=39.0 size=       1KiB time=00:00:02.25 bitrate=   2.0kbits/s speed=0.0133x elapsed=0:02:48.80    \nframe=  273 fps=1.6 q=31.0 size=       1KiB time=00:00:02.25 bitrate=   2.0kbits/s speed=0.0133x elapsed=0:02:49.36    \nframe=  274 fps=1.6 q=40.0 size=       1KiB time=00:00:02.26 bitrate=   2.0kbits/s speed=0.0133x elapsed=0:02:49.90    \nframe=  275 fps=1.6 q=40.0 size=       1KiB time=00:00:02.28 bitrate=   2.0kbits/s speed=0.0134x elapsed=0:02:50.47    \nframe=  276 fps=1.6 q=39.0 size=       1KiB time=00:00:02.29 bitrate=   2.0kbits/s speed=0.0134x elapsed=0:02:51.02    \nframe=  278 fps=1.6 q=39.0 size=       1KiB time=00:00:02.30 bitrate=   1.9kbits/s speed=0.0134x elapsed=0:02:51.56    \nframe=  278 fps=1.6 q=39.0 size=       1KiB time=00:00:02.30 bitrate=   1.9kbits/s speed=0.0134x elapsed=0:02:52.14    \nframe=  278 fps=1.6 q=39.0 size=       1KiB time=00:00:02.30 bitrate=   1.9kbits/s speed=0.0134x elapsed=0:02:52.74    \nframe=  279 fps=1.6 q=40.0 size=       1KiB time=00:00:02.31 bitrate=   1.9kbits/s speed=0.0134x elapsed=0:02:53.30    \nframe=  279 fps=1.6 q=40.0 size=       1KiB time=00:00:02.31 bitrate=   1.9kbits/s speed=0.0133x elapsed=0:02:53.87    \nframe=  280 fps=1.6 q=39.0 size=       1KiB time=00:00:02.32 bitrate=   1.9kbits/s speed=0.0133x elapsed=0:02:54.43    \nframe=  282 fps=1.6 q=39.0 size=       1KiB time=00:00:02.34 bitrate=   1.9kbits/s speed=0.0134x elapsed=0:02:54.99    \nframe=  283 fps=1.6 q=40.0 size=       1KiB time=00:00:02.35 bitrate=   1.9kbits/s speed=0.0134x elapsed=0:02:55.56    \nframe=  283 fps=1.6 q=40.0 size=       1KiB time=00:00:02.35 bitrate=   1.9kbits/s speed=0.0133x elapsed=0:02:56.13    \nframe=  284 fps=1.6 q=39.0 size=       1KiB time=00:00:02.35 bitrate=   1.9kbits/s speed=0.0133x elapsed=0:02:56.69    \nframe=  286 fps=1.6 q=38.0 size=       1KiB time=00:00:02.37 bitrate=   1.9kbits/s speed=0.0134x elapsed=0:02:57.26    \nframe=  287 fps=1.6 q=39.0 size=       1KiB time=00:00:02.38 bitrate=   1.9kbits/s speed=0.0134x elapsed=0:02:57.83    \nframe=  288 fps=1.6 q=39.0 size=       1KiB time=00:00:02.39 bitrate=   1.9kbits/s speed=0.0134x elapsed=0:02:58.40    \nframe=  290 fps=1.6 q=41.0 size=       1KiB time=00:00:02.40 bitrate=   1.9kbits/s speed=0.0135x elapsed=0:02:58.97    \nframe=  291 fps=1.6 q=41.0 size=       1KiB time=00:00:02.41 bitrate=   1.9kbits/s speed=0.0135x elapsed=0:02:59.54    \nframe=  292 fps=1.6 q=39.0 size=       1KiB time=00:00:02.41 bitrate=   1.9kbits/s speed=0.0134x elapsed=0:03:00.13    \nframe=  292 fps=1.6 q=39.0 size=       1KiB time=00:00:02.42 bitrate=   1.8kbits/s speed=0.0134x elapsed=0:03:00.70    \nframe=  293 fps=1.6 q=44.0 size=       1KiB time=00:00:02.43 bitrate=   1.8kbits/s speed=0.0134x elapsed=0:03:01.28    \nframe=  294 fps=1.6 q=39.0 size=       1KiB time=00:00:02.44 bitrate=   1.8kbits/s speed=0.0134x elapsed=0:03:01.85    \nframe=  294 fps=1.6 q=39.0 size=       1KiB time=00:00:02.44 bitrate=   1.8kbits/s speed=0.0134x elapsed=0:03:02.40    \nframe=  295 fps=1.6 q=41.0 size=       1KiB time=00:00:02.45 bitrate=   1.8kbits/s speed=0.0134x elapsed=0:03:02.99    \nframe=  295 fps=1.6 q=41.0 size=       1KiB time=00:00:02.45 bitrate=   1.8kbits/s speed=0.0133x elapsed=0:03:03.61    \nframe=  297 fps=1.6 q=41.0 size=       1KiB time=00:00:02.46 bitrate=   1.8kbits/s speed=0.0134x elapsed=0:03:04.21    \nframe=  298 fps=1.6 q=39.0 size=       1KiB time=00:00:02.47 bitrate=   1.8kbits/s speed=0.0134x elapsed=0:03:04.81    \nframe=  299 fps=1.6 q=41.0 size=       1KiB time=00:00:02.48 bitrate=   1.8kbits/s speed=0.0134x elapsed=0:03:05.39    \nframe=  299 fps=1.6 q=41.0 size=       1KiB time=00:00:02.48 bitrate=   1.8kbits/s speed=0.0134x elapsed=0:03:05.96    \nframe=  301 fps=1.6 q=44.0 size=       1KiB time=00:00:02.50 bitrate=   1.8kbits/s speed=0.0134x elapsed=0:03:06.50    \nframe=  303 fps=1.6 q=39.0 size=       1KiB time=00:00:02.51 bitrate=   1.8kbits/s speed=0.0135x elapsed=0:03:07.06    \nframe=  304 fps=1.6 q=39.0 size=       1KiB time=00:00:02.52 bitrate=   1.8kbits/s speed=0.0135x elapsed=0:03:07.63    \nframe=  305 fps=1.6 q=32.0 size=       1KiB time=00:00:02.53 bitrate=   1.8kbits/s speed=0.0135x elapsed=0:03:08.19    \nframe=  305 fps=1.6 q=32.0 size=       1KiB time=00:00:02.53 bitrate=   1.8kbits/s speed=0.0134x elapsed=0:03:08.78    \nframe=  307 fps=1.6 q=40.0 size=       1KiB time=00:00:02.55 bitrate=   1.8kbits/s speed=0.0135x elapsed=0:03:09.37    \nframe=  307 fps=1.6 q=40.0 size=       1KiB time=00:00:02.55 bitrate=   1.8kbits/s speed=0.0134x elapsed=0:03:10.02    \nframe=  308 fps=1.6 q=38.0 size=       1KiB time=00:00:02.55 bitrate=   1.8kbits/s speed=0.0134x elapsed=0:03:10.63    \nframe=  309 fps=1.6 q=44.0 size=       1KiB time=00:00:02.55 bitrate=   1.8kbits/s speed=0.0134x elapsed=0:03:11.20    \nframe=  309 fps=1.6 q=44.0 size=       1KiB time=00:00:02.56 bitrate=   1.7kbits/s speed=0.0134x elapsed=0:03:11.79    \nframe=  310 fps=1.6 q=38.0 size=       1KiB time=00:00:02.57 bitrate=   1.7kbits/s speed=0.0134x elapsed=0:03:12.37    \nframe=  310 fps=1.6 q=38.0 size=       1KiB time=00:00:02.57 bitrate=   1.7kbits/s speed=0.0133x elapsed=0:03:12.95    \nframe=  311 fps=1.6 q=40.0 size=       1KiB time=00:00:02.58 bitrate=   1.7kbits/s speed=0.0133x elapsed=0:03:13.51    \nframe=  311 fps=1.6 q=40.0 size=       1KiB time=00:00:02.58 bitrate=   1.7kbits/s speed=0.0133x elapsed=0:03:14.06    \nframe=  313 fps=1.6 q=42.0 size=       1KiB time=00:00:02.60 bitrate=   1.7kbits/s speed=0.0134x elapsed=0:03:14.65    \nframe=  314 fps=1.6 q=39.0 size=       1KiB time=00:00:02.60 bitrate=   1.7kbits/s speed=0.0134x elapsed=0:03:15.23    \nframe=  315 fps=1.6 q=41.0 size=       1KiB time=00:00:02.61 bitrate=   1.7kbits/s speed=0.0134x elapsed=0:03:15.81    \nframe=  316 fps=1.6 q=39.0 size=       1KiB time=00:00:02.62 bitrate=   1.7kbits/s speed=0.0134x elapsed=0:03:16.39    \nframe=  318 fps=1.6 q=39.0 size=       1KiB time=00:00:02.64 bitrate=   1.7kbits/s speed=0.0134x elapsed=0:03:16.97    \nframe=  319 fps=1.6 q=41.0 size=       1KiB time=00:00:02.65 bitrate=   1.7kbits/s speed=0.0134x elapsed=0:03:17.52    \nframe=  319 fps=1.6 q=41.0 size=       1KiB time=00:00:02.65 bitrate=   1.7kbits/s speed=0.0134x elapsed=0:03:18.08    \nframe=  321 fps=1.6 q=32.0 size=       1KiB time=00:00:02.66 bitrate=   1.7kbits/s speed=0.0134x elapsed=0:03:18.66    \nframe=  322 fps=1.6 q=40.0 size=       1KiB time=00:00:02.66 bitrate=   1.7kbits/s speed=0.0134x elapsed=0:03:19.22    \nframe=  322 fps=1.6 q=40.0 size=       1KiB time=00:00:02.67 bitrate=   1.7kbits/s speed=0.0134x elapsed=0:03:19.78    \nframe=  322 fps=1.6 q=40.0 size=       1KiB time=00:00:02.67 bitrate=   1.7kbits/s speed=0.0134x elapsed=0:03:20.36    \nframe=  325 fps=1.6 q=44.0 size=       1KiB time=00:00:02.70 bitrate=   1.7kbits/s speed=0.0134x elapsed=0:03:20.93    \nframe=  325 fps=1.6 q=44.0 size=       1KiB time=00:00:02.70 bitrate=   1.7kbits/s speed=0.0134x elapsed=0:03:21.50    \nframe=  325 fps=1.6 q=44.0 size=       1KiB time=00:00:02.70 bitrate=   1.7kbits/s speed=0.0134x elapsed=0:03:22.06    \nframe=  326 fps=1.6 q=38.0 size=       1KiB time=00:00:02.70 bitrate=   1.7kbits/s speed=0.0134x elapsed=0:03:22.62    \nframe=  327 fps=1.6 q=40.0 size=       1KiB time=00:00:02.70 bitrate=   1.7kbits/s speed=0.0133x elapsed=0:03:23.17    \nframe=  327 fps=1.6 q=40.0 size=       1KiB time=00:00:02.71 bitrate=   1.6kbits/s speed=0.0133x elapsed=0:03:23.76    \nframe=  328 fps=1.6 q=34.0 size=       1KiB time=00:00:02.72 bitrate=   1.6kbits/s speed=0.0133x elapsed=0:03:24.37    \nframe=  329 fps=1.6 q=42.0 size=       1KiB time=00:00:02.73 bitrate=   1.6kbits/s speed=0.0133x elapsed=0:03:24.95    \nframe=  331 fps=1.6 q=42.0 size=       1KiB time=00:00:02.75 bitrate=   1.6kbits/s speed=0.0134x elapsed=0:03:25.52    \nframe=  331 fps=1.6 q=42.0 size=       1KiB time=00:00:02.75 bitrate=   1.6kbits/s speed=0.0133x elapsed=0:03:26.10    \nframe=  333 fps=1.6 q=45.0 size=       1KiB time=00:00:02.76 bitrate=   1.6kbits/s speed=0.0134x elapsed=0:03:26.66    \nframe=  335 fps=1.6 q=41.0 size=       1KiB time=00:00:02.78 bitrate=   1.6kbits/s speed=0.0134x elapsed=0:03:27.24    \nframe=  336 fps=1.6 q=41.0 size=       1KiB time=00:00:02.78 bitrate=   1.6kbits/s speed=0.0134x elapsed=0:03:27.82    \nframe=  337 fps=1.6 q=32.0 size=       1KiB time=00:00:02.80 bitrate=   1.6kbits/s speed=0.0134x elapsed=0:03:28.42    \nframe=  338 fps=1.6 q=42.0 size=       1KiB time=00:00:02.80 bitrate=   1.6kbits/s speed=0.0134x elapsed=0:03:29.00    \nframe=  338 fps=1.6 q=42.0 size=       1KiB time=00:00:02.80 bitrate=   1.6kbits/s speed=0.0134x elapsed=0:03:29.58    \nframe=  339 fps=1.6 q=42.0 size=       1KiB time=00:00:02.81 bitrate=   1.6kbits/s speed=0.0134x elapsed=0:03:30.14    \nframe=  340 fps=1.6 q=40.0 size=       1KiB time=00:00:02.82 bitrate=   1.6kbits/s speed=0.0134x elapsed=0:03:30.70    \nframe=  341 fps=1.6 q=46.0 size=       1KiB time=00:00:02.83 bitrate=   1.6kbits/s speed=0.0134x elapsed=0:03:31.28    \nframe=  342 fps=1.6 q=40.0 size=       1KiB time=00:00:02.84 bitrate=   1.6kbits/s speed=0.0134x elapsed=0:03:31.86    \nframe=  343 fps=1.6 q=42.0 size=       1KiB time=00:00:02.85 bitrate=   1.6kbits/s speed=0.0134x elapsed=0:03:32.45    \nframe=  343 fps=1.6 q=42.0 size=       1KiB time=00:00:02.85 bitrate=   1.6kbits/s speed=0.0134x elapsed=0:03:33.05    \nframe=  343 fps=1.6 q=42.0 size=       1KiB time=00:00:02.85 bitrate=   1.6kbits/s speed=0.0133x elapsed=0:03:33.61    \nframe=  345 fps=1.6 q=44.0 size=       1KiB time=00:00:02.86 bitrate=   1.6kbits/s speed=0.0134x elapsed=0:03:34.17    \nframe=  347 fps=1.6 q=42.0 size=       1KiB time=00:00:02.88 bitrate=   1.6kbits/s speed=0.0134x elapsed=0:03:34.77    \nframe=  348 fps=1.6 q=41.0 size=       1KiB time=00:00:02.89 bitrate=   1.5kbits/s speed=0.0134x elapsed=0:03:35.38    \nframe=  348 fps=1.6 q=41.0 size=       1KiB time=00:00:02.89 bitrate=   1.5kbits/s speed=0.0134x elapsed=0:03:35.98    \nframe=  351 fps=1.6 q=42.0 size=       1KiB time=00:00:02.91 bitrate=   1.5kbits/s speed=0.0135x elapsed=0:03:36.59    \nframe=  352 fps=1.6 q=42.0 size=       1KiB time=00:00:02.92 bitrate=   1.5kbits/s speed=0.0135x elapsed=0:03:37.16    \nframe=  353 fps=1.6 q=32.0 size=       1KiB time=00:00:02.93 bitrate=   1.5kbits/s speed=0.0135x elapsed=0:03:37.72    \nframe=  354 fps=1.6 q=42.0 size=       1KiB time=00:00:02.94 bitrate=   1.5kbits/s speed=0.0135x elapsed=0:03:38.29    \nframe=  357 fps=1.6 q=46.0 size=       1KiB time=00:00:02.96 bitrate=   1.5kbits/s speed=0.0136x elapsed=0:03:38.86    \nframe=  358 fps=1.6 q=40.0 size=       1KiB time=00:00:02.97 bitrate=   1.5kbits/s speed=0.0136x elapsed=0:03:39.43    \nframe=  359 fps=1.6 q=42.0 size=       1KiB time=00:00:02.98 bitrate=   1.5kbits/s speed=0.0136x elapsed=0:03:40.00    \nframe=  359 fps=1.6 q=42.0 size=       1KiB time=00:00:02.98 bitrate=   1.5kbits/s speed=0.0135x elapsed=0:03:40.56    \nframe=  361 fps=1.6 q=43.0 size=       1KiB time=00:00:03.00 bitrate=   1.5kbits/s speed=0.0136x elapsed=0:03:41.12    \nframe=  363 fps=1.6 q=42.0 size=       1KiB time=00:00:03.01 bitrate=   1.5kbits/s speed=0.0136x elapsed=0:03:41.69    \nframe=  364 fps=1.6 q=41.0 size=       1KiB time=00:00:03.02 bitrate=   1.5kbits/s speed=0.0136x elapsed=0:03:42.25    \nframe=  366 fps=1.6 q=41.0 size=       1KiB time=00:00:03.03 bitrate=   1.5kbits/s speed=0.0136x elapsed=0:03:42.81    \nframe=  367 fps=1.6 q=42.0 size=       1KiB time=00:00:03.05 bitrate=   1.5kbits/s speed=0.0137x elapsed=0:03:43.37    \nframe=  368 fps=1.6 q=42.0 size=       1KiB time=00:00:03.05 bitrate=   1.5kbits/s speed=0.0137x elapsed=0:03:43.93    \nframe=  370 fps=1.6 q=43.0 size=       1KiB time=00:00:03.07 bitrate=   1.5kbits/s speed=0.0137x elapsed=0:03:44.48    \nframe=  370 fps=1.6 q=43.0 size=       1KiB time=00:00:03.07 bitrate=   1.5kbits/s speed=0.0137x elapsed=0:03:45.05    \nframe=  371 fps=1.6 q=43.0 size=       1KiB time=00:00:03.08 bitrate=   1.5kbits/s speed=0.0137x elapsed=0:03:45.62    \nframe=  373 fps=1.6 q=46.0 size=       1KiB time=00:00:03.10 bitrate=   1.4kbits/s speed=0.0137x elapsed=0:03:46.21    \nframe=  373 fps=1.6 q=46.0 size=       1KiB time=00:00:03.10 bitrate=   1.4kbits/s speed=0.0137x elapsed=0:03:46.78    \nframe=  374 fps=1.6 q=41.0 size=       1KiB time=00:00:03.10 bitrate=   1.4kbits/s speed=0.0137x elapsed=0:03:47.34    \nframe=  374 fps=1.6 q=41.0 size=       1KiB time=00:00:03.10 bitrate=   1.4kbits/s speed=0.0136x elapsed=0:03:47.91    \nframe=  375 fps=1.6 q=43.0 size=       1KiB time=00:00:03.11 bitrate=   1.4kbits/s speed=0.0136x elapsed=0:03:48.46    \nframe=  375 fps=1.6 q=43.0 size=       1KiB time=00:00:03.11 bitrate=   1.4kbits/s speed=0.0136x elapsed=0:03:49.03    \nframe=  377 fps=1.6 q=43.0 size=       1KiB time=00:00:03.13 bitrate=   1.4kbits/s speed=0.0136x elapsed=0:03:49.59    \nframe=  379 fps=1.6 q=43.0 size=       1KiB time=00:00:03.15 bitrate=   1.4kbits/s speed=0.0137x elapsed=0:03:50.16    \nframe=  380 fps=1.6 q=42.0 size=       1KiB time=00:00:03.15 bitrate=   1.4kbits/s speed=0.0137x elapsed=0:03:50.75    \nframe=  383 fps=1.7 q=43.0 size=       1KiB time=00:00:03.18 bitrate=   1.4kbits/s speed=0.0138x elapsed=0:03:51.30    \nframe=  385 fps=1.7 q=33.0 size=       1KiB time=00:00:03.20 bitrate=   1.4kbits/s speed=0.0138x elapsed=0:03:51.86    \nframe=  386 fps=1.7 q=44.0 size=       1KiB time=00:00:03.20 bitrate=   1.4kbits/s speed=0.0138x elapsed=0:03:52.41    \nframe=  388 fps=1.7 q=42.0 size=       1KiB time=00:00:03.22 bitrate=   1.4kbits/s speed=0.0138x elapsed=0:03:52.97    \nframe=  389 fps=1.7 q=47.0 size=       1KiB time=00:00:03.23 bitrate=   1.4kbits/s speed=0.0138x elapsed=0:03:53.53    \nframe=  391 fps=1.7 q=44.0 size=       1KiB time=00:00:03.25 bitrate=   1.4kbits/s speed=0.0139x elapsed=0:03:54.09    \nframe=  391 fps=1.7 q=44.0 size=       1KiB time=00:00:03.25 bitrate=   1.4kbits/s speed=0.0138x elapsed=0:03:54.68    \nframe=  392 fps=1.7 q=42.0 size=       1KiB time=00:00:03.25 bitrate=   1.4kbits/s speed=0.0138x elapsed=0:03:55.27    \nframe=  394 fps=1.7 q=42.0 size=       1KiB time=00:00:03.27 bitrate=   1.4kbits/s speed=0.0139x elapsed=0:03:55.85    \nframe=  395 fps=1.7 q=43.0 size=       1KiB time=00:00:03.28 bitrate=   1.4kbits/s speed=0.0139x elapsed=0:03:56.41    \nframe=  397 fps=1.7 q=45.0 size=       1KiB time=00:00:03.30 bitrate=   1.4kbits/s speed=0.0139x elapsed=0:03:56.99    \nframe=  398 fps=1.7 q=42.0 size=       1KiB time=00:00:03.30 bitrate=   1.4kbits/s speed=0.0139x elapsed=0:03:57.54    \nframe=  399 fps=1.7 q=43.0 size=       1KiB time=00:00:03.31 bitrate=   1.4kbits/s speed=0.0139x elapsed=0:03:58.10    \nframe=  401 fps=1.7 q=33.0 size=       1KiB time=00:00:03.33 bitrate=   1.3kbits/s speed=0.014x elapsed=0:03:58.67    \nframe=  402 fps=1.7 q=43.0 size=       1KiB time=00:00:03.34 bitrate=   1.3kbits/s speed=0.014x elapsed=0:03:59.24    \nframe=  402 fps=1.7 q=43.0 size=       1KiB time=00:00:03.34 bitrate=   1.3kbits/s speed=0.0139x elapsed=0:03:59.82    \nframe=  403 fps=1.7 q=43.0 size=       1KiB time=00:00:03.35 bitrate=   1.3kbits/s speed=0.0139x elapsed=0:04:00.41    \nframe=  404 fps=1.7 q=42.0 size=       1KiB time=00:00:03.35 bitrate=   1.3kbits/s speed=0.0139x elapsed=0:04:00.99    \nframe=  405 fps=1.7 q=46.0 size=       1KiB time=00:00:03.36 bitrate=   1.3kbits/s speed=0.0139x elapsed=0:04:01.57    \nframe=  406 fps=1.7 q=42.0 size=       1KiB time=00:00:03.37 bitrate=   1.3kbits/s speed=0.0139x elapsed=0:04:02.13    \nframe=  406 fps=1.7 q=42.0 size=       1KiB time=00:00:03.37 bitrate=   1.3kbits/s speed=0.0139x elapsed=0:04:02.71    \nframe=  406 fps=1.7 q=42.0 size=       1KiB time=00:00:03.37 bitrate=   1.3kbits/s speed=0.0139x elapsed=0:04:03.28    \nframe=  408 fps=1.7 q=42.0 size=       1KiB time=00:00:03.39 bitrate=   1.3kbits/s speed=0.0139x elapsed=0:04:03.85    \nframe=  409 fps=1.7 q=43.0 size=       1KiB time=00:00:03.40 bitrate=   1.3kbits/s speed=0.0139x elapsed=0:04:04.43    \nframe=  410 fps=1.7 q=41.0 size=       1KiB time=00:00:03.40 bitrate=   1.3kbits/s speed=0.0139x elapsed=0:04:05.00    \nframe=  410 fps=1.7 q=41.0 size=       1KiB time=00:00:03.40 bitrate=   1.3kbits/s speed=0.0139x elapsed=0:04:05.58    \nframe=  412 fps=1.7 q=37.0 size=       1KiB time=00:00:03.42 bitrate=   1.3kbits/s speed=0.0139x elapsed=0:04:06.14    \nframe=  415 fps=1.7 q=38.0 size=       1KiB time=00:00:03.44 bitrate=   1.3kbits/s speed=0.014x elapsed=0:04:06.71    \nframe=  417 fps=1.7 q=32.0 size=       1KiB time=00:00:03.46 bitrate=   1.3kbits/s speed=0.014x elapsed=0:04:07.27    \nframe=  418 fps=1.7 q=43.0 size=       1KiB time=00:00:03.47 bitrate=   1.3kbits/s speed=0.014x elapsed=0:04:07.84    \nframe=  419 fps=1.7 q=44.0 size=       1KiB time=00:00:03.48 bitrate=   1.3kbits/s speed=0.014x elapsed=0:04:08.41    \nframe=  420 fps=1.7 q=43.0 size=       1KiB time=00:00:03.49 bitrate=   1.3kbits/s speed=0.014x elapsed=0:04:08.98    \nframe=  421 fps=1.7 q=46.0 size=       1KiB time=00:00:03.50 bitrate=   1.3kbits/s speed=0.014x elapsed=0:04:09.53    \nframe=  422 fps=1.7 q=43.0 size=       1KiB time=00:00:03.50 bitrate=   1.3kbits/s speed=0.014x elapsed=0:04:10.09    \nframe=  423 fps=1.7 q=44.0 size=       1KiB time=00:00:03.51 bitrate=   1.3kbits/s speed=0.014x elapsed=0:04:10.65    \nframe=  425 fps=1.7 q=43.0 size=       1KiB time=00:00:03.52 bitrate=   1.3kbits/s speed=0.014x elapsed=0:04:11.20    \nframe=  426 fps=1.7 q=42.0 size=       1KiB time=00:00:03.53 bitrate=   1.3kbits/s speed=0.014x elapsed=0:04:11.77    \nframe=  427 fps=1.7 q=43.0 size=       1KiB time=00:00:03.55 bitrate=   1.3kbits/s speed=0.0141x elapsed=0:04:12.33    \nframe=  429 fps=1.7 q=45.0 size=       1KiB time=00:00:03.56 bitrate=   1.3kbits/s speed=0.0141x elapsed=0:04:12.88    \nframe=  430 fps=1.7 q=42.0 size=       1KiB time=00:00:03.57 bitrate=   1.3kbits/s speed=0.0141x elapsed=0:04:13.43    \nframe=  431 fps=1.7 q=43.0 size=       1KiB time=00:00:03.58 bitrate=   1.3kbits/s speed=0.0141x elapsed=0:04:13.97    \nframe=  433 fps=1.7 q=33.0 size=       1KiB time=00:00:03.60 bitrate=   1.2kbits/s speed=0.0141x elapsed=0:04:14.54    \nframe=  434 fps=1.7 q=43.0 size=       1KiB time=00:00:03.60 bitrate=   1.2kbits/s speed=0.0141x elapsed=0:04:15.09    \nframe=  436 fps=1.7 q=42.0 size=       1KiB time=00:00:03.62 bitrate=   1.2kbits/s speed=0.0142x elapsed=0:04:15.66    \nframe=  437 fps=1.7 q=44.0 size=       1KiB time=00:00:03.63 bitrate=   1.2kbits/s speed=0.0142x elapsed=0:04:16.20    \nframe=  439 fps=1.7 q=43.0 size=       1KiB time=00:00:03.65 bitrate=   1.2kbits/s speed=0.0142x elapsed=0:04:16.76    \nframe=  440 fps=1.7 q=42.0 size=       1KiB time=00:00:03.65 bitrate=   1.2kbits/s speed=0.0142x elapsed=0:04:17.32    \nframe=  441 fps=1.7 q=43.0 size=       1KiB time=00:00:03.66 bitrate=   1.2kbits/s speed=0.0142x elapsed=0:04:17.92    \nframe=  443 fps=1.7 q=43.0 size=       1KiB time=00:00:03.68 bitrate=   1.2kbits/s speed=0.0142x elapsed=0:04:18.50    \nframe=  443 fps=1.7 q=43.0 size=       1KiB time=00:00:03.68 bitrate=   1.2kbits/s speed=0.0142x elapsed=0:04:19.08    \nframe=  443 fps=1.7 q=43.0 size=       1KiB time=00:00:03.68 bitrate=   1.2kbits/s speed=0.0142x elapsed=0:04:19.66    \nframe=  444 fps=1.7 q=42.0 size=       1KiB time=00:00:03.69 bitrate=   1.2kbits/s speed=0.0142x elapsed=0:04:20.22    \nframe=  447 fps=1.7 q=37.0 size=       1KiB time=00:00:03.71 bitrate=   1.2kbits/s speed=0.0143x elapsed=0:04:20.79    \nframe=  448 fps=1.7 q=40.0 size=       1KiB time=00:00:03.72 bitrate=   1.2kbits/s speed=0.0143x elapsed=0:04:21.35    \nframe=  450 fps=1.7 q=43.0 size=       1KiB time=00:00:03.74 bitrate=   1.2kbits/s speed=0.0143x elapsed=0:04:21.91    \nframe=  451 fps=1.7 q=44.0 size=       1KiB time=00:00:03.75 bitrate=   1.2kbits/s speed=0.0143x elapsed=0:04:22.48    \nframe=  452 fps=1.7 q=43.0 size=       1KiB time=00:00:03.75 bitrate=   1.2kbits/s speed=0.0143x elapsed=0:04:23.04    \nframe=  453 fps=1.7 q=46.0 size=       1KiB time=00:00:03.76 bitrate=   1.2kbits/s speed=0.0143x elapsed=0:04:23.62    \nframe=  454 fps=1.7 q=43.0 size=       1KiB time=00:00:03.77 bitrate=   1.2kbits/s speed=0.0143x elapsed=0:04:24.17    \nframe=  454 fps=1.7 q=43.0 size=       1KiB time=00:00:03.77 bitrate=   1.2kbits/s speed=0.0143x elapsed=0:04:24.72    \nframe=  455 fps=1.7 q=44.0 size=       1KiB time=00:00:03.78 bitrate=   1.2kbits/s speed=0.0143x elapsed=0:04:25.28    \nframe=  457 fps=1.7 q=43.0 size=       1KiB time=00:00:03.80 bitrate=   1.2kbits/s speed=0.0143x elapsed=0:04:25.88    \nframe=  458 fps=1.7 q=43.0 size=       1KiB time=00:00:03.80 bitrate=   1.2kbits/s speed=0.0143x elapsed=0:04:26.44    \nframe=  458 fps=1.7 q=43.0 size=       1KiB time=00:00:03.80 bitrate=   1.2kbits/s speed=0.0143x elapsed=0:04:27.03    \nframe=  460 fps=1.7 q=38.0 size=       1KiB time=00:00:03.82 bitrate=   1.2kbits/s speed=0.0143x elapsed=0:04:27.62    \nframe=  461 fps=1.7 q=44.0 size=       1KiB time=00:00:03.83 bitrate=   1.2kbits/s speed=0.0143x elapsed=0:04:28.21    \nframe=  463 fps=1.7 q=38.0 size=       1KiB time=00:00:03.85 bitrate=   1.2kbits/s speed=0.0143x elapsed=0:04:28.78    \nframe=  464 fps=1.7 q=40.0 size=       1KiB time=00:00:03.85 bitrate=   1.2kbits/s speed=0.0143x elapsed=0:04:29.37    \nframe=  465 fps=1.7 q=32.0 size=       1KiB time=00:00:03.86 bitrate=   1.2kbits/s speed=0.0143x elapsed=0:04:29.96    \nframe=  466 fps=1.7 q=43.0 size=       1KiB time=00:00:03.87 bitrate=   1.2kbits/s speed=0.0143x elapsed=0:04:30.53    \nframe=  467 fps=1.7 q=44.0 size=       1KiB time=00:00:03.88 bitrate=   1.2kbits/s speed=0.0143x elapsed=0:04:31.10    \nframe=  469 fps=1.7 q=45.0 size=       1KiB time=00:00:03.90 bitrate=   1.1kbits/s speed=0.0144x elapsed=0:04:31.67    \nframe=  469 fps=1.7 q=45.0 size=       1KiB time=00:00:03.90 bitrate=   1.1kbits/s speed=0.0143x elapsed=0:04:32.23    \nframe=  470 fps=1.7 q=43.0 size=       1KiB time=00:00:03.90 bitrate=   1.1kbits/s speed=0.0143x elapsed=0:04:32.79    \nframe=  471 fps=1.7 q=44.0 size=       1KiB time=00:00:03.91 bitrate=   1.1kbits/s speed=0.0143x elapsed=0:04:33.35    \nframe=  474 fps=1.7 q=43.0 size=       1KiB time=00:00:03.93 bitrate=   1.1kbits/s speed=0.0144x elapsed=0:04:33.92    \nframe=  474 fps=1.7 q=43.0 size=       1KiB time=00:00:03.94 bitrate=   1.1kbits/s speed=0.0144x elapsed=0:04:34.48    \nframe=  477 fps=1.7 q=44.0 size=       1KiB time=00:00:03.96 bitrate=   1.1kbits/s speed=0.0144x elapsed=0:04:35.02    \nframe=  479 fps=1.7 q=38.0 size=       1KiB time=00:00:03.98 bitrate=   1.1kbits/s speed=0.0145x elapsed=0:04:35.59    \nframe=  479 fps=1.7 q=38.0 size=       1KiB time=00:00:03.98 bitrate=   1.1kbits/s speed=0.0144x elapsed=0:04:36.14    \nframe=  481 fps=1.7 q=33.0 size=       1KiB time=00:00:04.00 bitrate=   1.1kbits/s speed=0.0145x elapsed=0:04:36.68    \nframe=  482 fps=1.7 q=43.0 size=       1KiB time=00:00:04.00 bitrate=   1.1kbits/s speed=0.0145x elapsed=0:04:37.23    \nframe=  485 fps=1.7 q=45.0 size=       1KiB time=00:00:04.03 bitrate=   1.1kbits/s speed=0.0145x elapsed=0:04:37.79    \nframe=  486 fps=1.7 q=43.0 size=       1KiB time=00:00:04.04 bitrate=   1.1kbits/s speed=0.0145x elapsed=0:04:38.34    \nframe=  487 fps=1.7 q=44.0 size=       1KiB time=00:00:04.05 bitrate=   1.1kbits/s speed=0.0145x elapsed=0:04:38.90    \nframe=  488 fps=1.7 q=43.0 size=       1KiB time=00:00:04.05 bitrate=   1.1kbits/s speed=0.0145x elapsed=0:04:39.46    \nframe=  489 fps=1.7 q=43.0 size=       1KiB time=00:00:04.06 bitrate=   1.1kbits/s speed=0.0145x elapsed=0:04:40.03    \nframe=  491 fps=1.7 q=44.0 size=       1KiB time=00:00:04.08 bitrate=   1.1kbits/s speed=0.0146x elapsed=0:04:40.60    \nframe=  492 fps=1.7 q=43.0 size=       1KiB time=00:00:04.09 bitrate=   1.1kbits/s speed=0.0146x elapsed=0:04:41.20    \nframe=  493 fps=1.7 q=45.0 size=       1KiB time=00:00:04.10 bitrate=   1.1kbits/s speed=0.0145x elapsed=0:04:41.79    \nframe=  495 fps=1.8 q=44.0 size=       1KiB time=00:00:04.11 bitrate=   1.1kbits/s speed=0.0146x elapsed=0:04:42.37    \nframe=  496 fps=1.8 q=43.0 size=       1KiB time=00:00:04.11 bitrate=   1.1kbits/s speed=0.0145x elapsed=0:04:42.95    \nframe=  498 fps=1.8 q=43.0 size=       1KiB time=00:00:04.14 bitrate=   1.1kbits/s speed=0.0146x elapsed=0:04:43.52    \nframe=  498 fps=1.8 q=43.0 size=       1KiB time=00:00:04.14 bitrate=   1.1kbits/s speed=0.0146x elapsed=0:04:44.09    \nframe=  499 fps=1.8 q=44.0 size=       1KiB time=00:00:04.15 bitrate=   1.1kbits/s speed=0.0146x elapsed=0:04:44.66    \nframe=  500 fps=1.8 q=43.0 size=       1KiB time=00:00:04.15 bitrate=   1.1kbits/s speed=0.0146x elapsed=0:04:45.22    \nframe=  501 fps=1.8 q=45.0 size=       1KiB time=00:00:04.16 bitrate=   1.1kbits/s speed=0.0146x elapsed=0:04:45.80    \nframe=  501 fps=1.7 q=45.0 size=       1KiB time=00:00:04.16 bitrate=   1.1kbits/s speed=0.0145x elapsed=0:04:46.38    \nframe=  502 fps=1.7 q=43.0 size=       1KiB time=00:00:04.17 bitrate=   1.1kbits/s speed=0.0145x elapsed=0:04:46.97    \nframe=  505 fps=1.8 q=43.0 size=       1KiB time=00:00:04.20 bitrate=   1.1kbits/s speed=0.0146x elapsed=0:04:47.54    \nframe=  505 fps=1.8 q=43.0 size=       1KiB time=00:00:04.20 bitrate=   1.1kbits/s speed=0.0146x elapsed=0:04:48.11    \nframe=  507 fps=1.8 q=44.0 size=       1KiB time=00:00:04.21 bitrate=   1.1kbits/s speed=0.0146x elapsed=0:04:48.67    \nframe=  509 fps=1.8 q=45.0 size=       1KiB time=00:00:04.23 bitrate=   1.1kbits/s speed=0.0146x elapsed=0:04:49.24    \nframe=  509 fps=1.8 q=45.0 size=       1KiB time=00:00:04.23 bitrate=   1.1kbits/s speed=0.0146x elapsed=0:04:49.81    \nframe=  509 fps=1.8 q=45.0 size=       1KiB time=00:00:04.23 bitrate=   1.1kbits/s speed=0.0146x elapsed=0:04:50.39    \nframe=  511 fps=1.8 q=38.0 size=       1KiB time=00:00:04.25 bitrate=   1.1kbits/s speed=0.0146x elapsed=0:04:51.00    \nframe=  513 fps=1.8 q=32.0 size=       1KiB time=00:00:04.26 bitrate=   1.0kbits/s speed=0.0146x elapsed=0:04:51.63    \nframe=  513 fps=1.8 q=32.0 size=       1KiB time=00:00:04.26 bitrate=   1.0kbits/s speed=0.0146x elapsed=0:04:52.25    \nframe=  515 fps=1.8 q=44.0 size=       1KiB time=00:00:04.28 bitrate=   1.0kbits/s speed=0.0146x elapsed=0:04:52.86    \nframe=  517 fps=1.8 q=45.0 size=       1KiB time=00:00:04.30 bitrate=   1.0kbits/s speed=0.0147x elapsed=0:04:53.45    \nframe=  517 fps=1.8 q=45.0 size=       1KiB time=00:00:04.30 bitrate=   1.0kbits/s speed=0.0146x elapsed=0:04:54.03    \nframe=  517 fps=1.8 q=45.0 size=       1KiB time=00:00:04.30 bitrate=   1.0kbits/s speed=0.0146x elapsed=0:04:54.60    \nframe=  519 fps=1.8 q=44.0 size=       1KiB time=00:00:04.31 bitrate=   1.0kbits/s speed=0.0146x elapsed=0:04:55.19    \nframe=  521 fps=1.8 q=43.0 size=       1KiB time=00:00:04.33 bitrate=   1.0kbits/s speed=0.0147x elapsed=0:04:55.76    \nframe=  521 fps=1.8 q=43.0 size=       1KiB time=00:00:04.33 bitrate=   1.0kbits/s speed=0.0146x elapsed=0:04:56.34    \nframe=  521 fps=1.8 q=43.0 size=       1KiB time=00:00:04.33 bitrate=   1.0kbits/s speed=0.0146x elapsed=0:04:56.93    \nframe=  521 fps=1.8 q=43.0 size=       1KiB time=00:00:04.33 bitrate=   1.0kbits/s speed=0.0146x elapsed=0:04:57.51    \nframe=  521 fps=1.7 q=43.0 size=       1KiB time=00:00:04.33 bitrate=   1.0kbits/s speed=0.0145x elapsed=0:04:58.12    \nframe=  521 fps=1.7 q=43.0 size=       1KiB time=00:00:04.33 bitrate=   1.0kbits/s speed=0.0145x elapsed=0:04:58.71    \nframe=  523 fps=1.7 q=44.0 size=       1KiB time=00:00:04.35 bitrate=   1.0kbits/s speed=0.0145x elapsed=0:04:59.29    \nframe=  525 fps=1.8 q=45.0 size=       1KiB time=00:00:04.36 bitrate=   1.0kbits/s speed=0.0146x elapsed=0:04:59.85    \nframe=  525 fps=1.7 q=45.0 size=       1KiB time=00:00:04.36 bitrate=   1.0kbits/s speed=0.0145x elapsed=0:05:00.41    \nframe=  529 fps=1.8 q=33.0 size=       1KiB time=00:00:04.40 bitrate=   1.0kbits/s speed=0.0146x elapsed=0:05:00.96    \nframe=  533 fps=1.8 q=44.0 size=       1KiB time=00:00:04.43 bitrate=   1.0kbits/s speed=0.0147x elapsed=0:05:01.51    \nframe=  533 fps=1.8 q=44.0 size=       1KiB time=00:00:04.43 bitrate=   1.0kbits/s speed=0.0147x elapsed=0:05:02.07    \nframe=  535 fps=1.8 q=43.0 size=       1KiB time=00:00:04.45 bitrate=   1.0kbits/s speed=0.0147x elapsed=0:05:02.63    \nframe=  537 fps=1.8 q=43.0 size=       1KiB time=00:00:04.46 bitrate=   1.0kbits/s speed=0.0147x elapsed=0:05:03.19    \nframe=  537 fps=1.8 q=43.0 size=       1KiB time=00:00:04.46 bitrate=   1.0kbits/s speed=0.0147x elapsed=0:05:03.74    \nframe=  537 fps=1.8 q=43.0 size=       1KiB time=00:00:04.46 bitrate=   1.0kbits/s speed=0.0147x elapsed=0:05:04.30    \nframe=  537 fps=1.8 q=43.0 size=       1KiB time=00:00:04.46 bitrate=   1.0kbits/s speed=0.0146x elapsed=0:05:04.91    \nframe=  539 fps=1.8 q=44.0 size=       1KiB time=00:00:04.48 bitrate=   1.0kbits/s speed=0.0147x elapsed=0:05:05.49    \nframe=  541 fps=1.8 q=45.0 size=       1KiB time=00:00:04.50 bitrate=   1.0kbits/s speed=0.0147x elapsed=0:05:06.04    \nframe=  541 fps=1.8 q=45.0 size=       1KiB time=00:00:04.50 bitrate=   1.0kbits/s speed=0.0147x elapsed=0:05:06.61    \nframe=  545 fps=1.8 q=33.0 size=       1KiB time=00:00:04.53 bitrate=   1.0kbits/s speed=0.0148x elapsed=0:05:07.20    \nframe=  545 fps=1.8 q=33.0 size=       1KiB time=00:00:04.53 bitrate=   1.0kbits/s speed=0.0147x elapsed=0:05:07.77    \nframe=  547 fps=1.8 q=43.0 size=       1KiB time=00:00:04.55 bitrate=   1.0kbits/s speed=0.0148x elapsed=0:05:08.33    \nframe=  549 fps=1.8 q=44.0 size=       1KiB time=00:00:04.56 bitrate=   1.0kbits/s speed=0.0148x elapsed=0:05:08.91    \nframe=  551 fps=1.8 q=43.0 size=       1KiB time=00:00:04.56 bitrate=   1.0kbits/s speed=0.0148x elapsed=0:05:09.49    \nframe=  553 fps=1.8 q=42.0 size=       1KiB time=00:00:04.60 bitrate=   1.0kbits/s speed=0.0148x elapsed=0:05:10.07    \nframe=  553 fps=1.8 q=42.0 size=       1KiB time=00:00:04.60 bitrate=   1.0kbits/s speed=0.0148x elapsed=0:05:10.62    \nframe=  553 fps=1.8 q=42.0 size=       1KiB time=00:00:04.60 bitrate=   1.0kbits/s speed=0.0148x elapsed=0:05:11.19    \nframe=  553 fps=1.8 q=42.0 size=       1KiB time=00:00:04.60 bitrate=   1.0kbits/s speed=0.0148x elapsed=0:05:11.79    \nframe=  553 fps=1.8 q=42.0 size=       1KiB time=00:00:04.60 bitrate=   1.0kbits/s speed=0.0147x elapsed=0:05:12.36    \nframe=  555 fps=1.8 q=42.0 size=       1KiB time=00:00:04.60 bitrate=   1.0kbits/s speed=0.0147x elapsed=0:05:12.92    \nframe=  557 fps=1.8 q=43.0 size=       1KiB time=00:00:04.63 bitrate=   1.0kbits/s speed=0.0148x elapsed=0:05:13.48    \nframe=  557 fps=1.8 q=43.0 size=       1KiB time=00:00:04.63 bitrate=   1.0kbits/s speed=0.0148x elapsed=0:05:14.04    \nframe=  559 fps=1.8 q=42.0 size=       1KiB time=00:00:04.65 bitrate=   1.0kbits/s speed=0.0148x elapsed=0:05:14.60    \nframe=  561 fps=1.8 q=32.0 size=       1KiB time=00:00:04.66 bitrate=   1.0kbits/s speed=0.0148x elapsed=0:05:15.16    \nframe=  561 fps=1.8 q=32.0 size=       1KiB time=00:00:04.66 bitrate=   1.0kbits/s speed=0.0148x elapsed=0:05:15.72    \nframe=  563 fps=1.8 q=43.0 size=       1KiB time=00:00:04.68 bitrate=   1.0kbits/s speed=0.0148x elapsed=0:05:16.29    \nframe=  565 fps=1.8 q=44.0 size=       1KiB time=00:00:04.70 bitrate=   1.0kbits/s speed=0.0148x elapsed=0:05:16.86    \nframe=  565 fps=1.8 q=44.0 size=       1KiB time=00:00:04.70 bitrate=   1.0kbits/s speed=0.0148x elapsed=0:05:17.41    \nframe=  567 fps=1.8 q=43.0 size=       1KiB time=00:00:04.71 bitrate=   0.9kbits/s speed=0.0148x elapsed=0:05:17.99    \nframe=  567 fps=1.8 q=43.0 size=       1KiB time=00:00:04.71 bitrate=   0.9kbits/s speed=0.0148x elapsed=0:05:18.57    \nframe=  569 fps=1.8 q=42.0 size=       1KiB time=00:00:04.73 bitrate=   0.9kbits/s speed=0.0148x elapsed=0:05:19.13    \nframe=  569 fps=1.8 q=42.0 size=       1KiB time=00:00:04.73 bitrate=   0.9kbits/s speed=0.0148x elapsed=0:05:19.73    \nframe=  569 fps=1.8 q=42.0 size=       1KiB time=00:00:04.73 bitrate=   0.9kbits/s speed=0.0148x elapsed=0:05:20.31    \nframe=  569 fps=1.8 q=42.0 size=       1KiB time=00:00:04.73 bitrate=   0.9kbits/s speed=0.0148x elapsed=0:05:20.89    \nframe=  569 fps=1.8 q=42.0 size=       1KiB time=00:00:04.73 bitrate=   0.9kbits/s speed=0.0147x elapsed=0:05:21.48    \nframe=  571 fps=1.8 q=42.0 size=       1KiB time=00:00:04.75 bitrate=   0.9kbits/s speed=0.0147x elapsed=0:05:22.06    \nframe=  573 fps=1.8 q=43.0 size=       1KiB time=00:00:04.76 bitrate=   0.9kbits/s speed=0.0148x elapsed=0:05:22.64    \nframe=  577 fps=1.8 q=32.0 size=       1KiB time=00:00:04.80 bitrate=   0.9kbits/s speed=0.0149x elapsed=0:05:23.22    \nframe=  577 fps=1.8 q=32.0 size=       1KiB time=00:00:04.80 bitrate=   0.9kbits/s speed=0.0148x elapsed=0:05:23.79    \nframe=  577 fps=1.8 q=32.0 size=       1KiB time=00:00:04.80 bitrate=   0.9kbits/s speed=0.0148x elapsed=0:05:24.35    \nframe=  577 fps=1.8 q=32.0 size=       1KiB time=00:00:04.80 bitrate=   0.9kbits/s speed=0.0148x elapsed=0:05:24.93    \nframe=  579 fps=1.8 q=43.0 size=       1KiB time=00:00:04.81 bitrate=   0.9kbits/s speed=0.0148x elapsed=0:05:25.49    \nframe=  581 fps=1.8 q=44.0 size=       1KiB time=00:00:04.83 bitrate=   0.9kbits/s speed=0.0148x elapsed=0:05:26.05    \nframe=  581 fps=1.8 q=44.0 size=       1KiB time=00:00:04.83 bitrate=   0.9kbits/s speed=0.0148x elapsed=0:05:26.62    \nframe=  583 fps=1.8 q=44.0 size=       1KiB time=00:00:04.85 bitrate=   0.9kbits/s speed=0.0148x elapsed=0:05:27.17    \nframe=  585 fps=1.8 q=43.0 size=       1KiB time=00:00:04.86 bitrate=   0.9kbits/s speed=0.0148x elapsed=0:05:27.72    \nframe=  585 fps=1.8 q=43.0 size=       1KiB time=00:00:04.86 bitrate=   0.9kbits/s speed=0.0148x elapsed=0:05:28.27    \nframe=  585 fps=1.8 q=43.0 size=       1KiB time=00:00:04.86 bitrate=   0.9kbits/s speed=0.0148x elapsed=0:05:28.85    \nframe=  585 fps=1.8 q=43.0 size=       1KiB time=00:00:04.86 bitrate=   0.9kbits/s speed=0.0148x elapsed=0:05:29.41    \nframe=  587 fps=1.8 q=44.0 size=       1KiB time=00:00:04.88 bitrate=   0.9kbits/s speed=0.0148x elapsed=0:05:29.97    \nframe=  589 fps=1.8 q=46.0 size=       1KiB time=00:00:04.90 bitrate=   0.9kbits/s speed=0.0148x elapsed=0:05:30.53    \nframe=  589 fps=1.8 q=46.0 size=       1KiB time=00:00:04.90 bitrate=   0.9kbits/s speed=0.0148x elapsed=0:05:31.08    \nframe=  591 fps=1.8 q=44.0 size=       1KiB time=00:00:04.91 bitrate=   0.9kbits/s speed=0.0148x elapsed=0:05:31.63    \n[out#0/matroska @ 00000204bdf290c0] video:1221KiB audio:0KiB subtitle:0KiB other streams:0KiB global headers:0KiB muxing overhead: 0.266790%\nframe=  600 fps=1.8 q=50.0 Lsize=    1225KiB time=00:00:04.99 bitrate=2010.0kbits/s speed=0.015x elapsed=0:05:31.88    \n",
  "seconds": 334.54782128334045,
  "probe_out": {}
}